0
SECTION
2
HEADER
9
$INSUNITS
70
1
9
$ACADVER
1
AC1014
9
$HANDSEED
5
FFFF
0
ENDSEC
0
SECTION
2
TABLES
0
TABLE
2
VPORT
5
8
100
AcDbSymbolTable
0
ENDTAB
0
TABLE
2
LTYPE
5
5
100
AcDbSymbolTable
0
LTYPE
5
14
100
AcDbSymbolTableRecord
100
AcDbLinetypeTableRecord
2
BYBLOCK
70
0
0
LTYPE
5
15
100
AcDbSymbolTableRecord
100
AcDbLinetypeTableRecord
2
BYLAYER
70
0
0
ENDTAB
0
TABLE
2
LAYER
5
2
100
AcDbSymbolTable
70
2
0
LAYER
5
50
100
AcDbSymbolTableRecord
100
AcDbLayerTableRecord
2
0
70
0
6
CONTINUOUS
0
ENDTAB
0
TABLE
2
STYLE
5
3
100
AcDbSymbolTable
70
1
0
STYLE
5
11
100
AcDbSymbolTableRecord
100
AcDbTextStyleTableRecord
2
STANDARD
70
0
0
ENDTAB
0
TABLE
2
VIEW
5
6
100
AcDbSymbolTable
70
0
0
ENDTAB
0
TABLE
2
UCS
5
7
100
AcDbSymbolTable
70
0
0
ENDTAB
0
TABLE
2
APPID
5
9
100
AcDbSymbolTable
70
2
0
APPID
5
12
100
AcDbSymbolTableRecord
100
AcDbRegAppTableRecord
2
ACAD
70
0
0
ENDTAB
0
TABLE
2
DIMSTYLE
5
A
100
AcDbSymbolTable
70
1
0
ENDTAB
0
TABLE
2
BLOCK_RECORD
5
1
100
AcDbSymbolTable
70
1
0
BLOCK_RECORD
5
1F
100
AcDbSymbolTableRecord
100
AcDbBlockTableRecord
2
*MODEL_SPACE
0
BLOCK_RECORD
5
1B
100
AcDbSymbolTableRecord
100
AcDbBlockTableRecord
2
*PAPER_SPACE
0
ENDTAB
0
ENDSEC
0
SECTION
2
BLOCKS
0
BLOCK
5
20
100
AcDbEntity
100
AcDbBlockBegin
2
*MODEL_SPACE
0
ENDBLK
5
21
100
AcDbEntity
100
AcDbBlockEnd
0
BLOCK
5
1C
100
AcDbEntity
100
AcDbBlockBegin
2
*PAPER_SPACE
0
ENDBLK
5
1D
100
AcDbEntity
100
AcDbBlockEnd
0
ENDSEC
0
SECTION
2
ENTITIES
0
LWPOLYLINE
5
100
100
AcDbEntity
8
0
100
AcDbPolyline
90
4
70
1
43
0.0
10
0.1249999999999994
20
-7.1181102362204722
10
0.12499999999999938
20
-7
10
-0.12500000000000042
20
-7.0000000000000009
10
-0.12500000000000042
20
-7.118110236220474
0
LWPOLYLINE
5
101
100
AcDbEntity
8
0
100
AcDbPolyline
90
26
70
1
43
0.0
10
-0.4831102362204725
20
-7
10
-0.4831102362204725
20
-6.5
10
-0.3650000000000001
20
-6.5
10
-0.36499999999999938
20
-4.8749999902227161
10
-0.4831102362204725
20
-4.8749999902227161
10
-0.48311023622047278
20
-4.6249999984517425
10
-0.36399984548773479
20
-4.6249999984517407
10
-0.36400000000000071
20
-2.9999999886744635
10
-0.4831102362204725
20
-2.9999999999999973
10
-0.4831102362204725
20
-2.4999999999999973
10
0.4831102362204725
20
-2.4999999999999973
10
0.4831102362204725
20
-2.9999999999999982
10
0.3640000000000006
20
-2.999999988674463
10
0.36399984548773551
20
-4.6249999984517416
10
0.48311023622047289
20
-4.6249999902227152
10
0.48311023622047289
20
-4.8749999902227161
10
0.36499999999999944
20
-4.8749999902227161
10
0.36500000000000016
20
-6.5
10
0.4831102362204725
20
-6.5
10
0.4831102362204725
20
-7
10
0.36500000000000016
20
-7
10
0.36500000000000182
20
-7.1112204724409445
42
-0.41421356237310336
10
0.24000000000000007
20
-7.2362204724409454
10
-0.24000000000000007
20
-7.2362204724409436
42
-0.4142135623730967
10
-0.36500000000000044
20
-7.1112204724409471
10
-0.36500000000000005
20
-7
0
ENDSEC
0
SECTION
2
OBJECTS
0
DICTIONARY
5
C
100
AcDbDictionary
3
ACAD_GROUP
350
D
3
ACAD_MLINESTYLE
350
17
0
DICTIONARY
5
D
100
AcDbDictionary
0
DICTIONARY
5
1A
330
C
100
AcDbDictionary
0
DICTIONARY
5
17
100
AcDbDictionary
0
ENDSEC
0
EOF
