0
SECTION
2
HEADER
9
$INSUNITS
70
1
9
$ACADVER
1
AC1014
9
$HANDSEED
5
FFFF
0
ENDSEC
0
SECTION
2
TABLES
0
TABLE
2
VPORT
5
8
100
AcDbSymbolTable
0
ENDTAB
0
TABLE
2
LTYPE
5
5
100
AcDbSymbolTable
0
LTYPE
5
14
100
AcDbSymbolTableRecord
100
AcDbLinetypeTableRecord
2
BYBLOCK
70
0
0
LTYPE
5
15
100
AcDbSymbolTableRecord
100
AcDbLinetypeTableRecord
2
BYLAYER
70
0
0
ENDTAB
0
TABLE
2
LAYER
5
2
100
AcDbSymbolTable
70
2
0
LAYER
5
50
100
AcDbSymbolTableRecord
100
AcDbLayerTableRecord
2
0
70
0
6
CONTINUOUS
0
ENDTAB
0
TABLE
2
STYLE
5
3
100
AcDbSymbolTable
70
1
0
STYLE
5
11
100
AcDbSymbolTableRecord
100
AcDbTextStyleTableRecord
2
STANDARD
70
0
0
ENDTAB
0
TABLE
2
VIEW
5
6
100
AcDbSymbolTable
70
0
0
ENDTAB
0
TABLE
2
UCS
5
7
100
AcDbSymbolTable
70
0
0
ENDTAB
0
TABLE
2
APPID
5
9
100
AcDbSymbolTable
70
2
0
APPID
5
12
100
AcDbSymbolTableRecord
100
AcDbRegAppTableRecord
2
ACAD
70
0
0
ENDTAB
0
TABLE
2
DIMSTYLE
5
A
100
AcDbSymbolTable
70
1
0
ENDTAB
0
TABLE
2
BLOCK_RECORD
5
1
100
AcDbSymbolTable
70
1
0
BLOCK_RECORD
5
1F
100
AcDbSymbolTableRecord
100
AcDbBlockTableRecord
2
*MODEL_SPACE
0
BLOCK_RECORD
5
1B
100
AcDbSymbolTableRecord
100
AcDbBlockTableRecord
2
*PAPER_SPACE
0
ENDTAB
0
ENDSEC
0
SECTION
2
BLOCKS
0
BLOCK
5
20
100
AcDbEntity
100
AcDbBlockBegin
2
*MODEL_SPACE
0
ENDBLK
5
21
100
AcDbEntity
100
AcDbBlockEnd
0
BLOCK
5
1C
100
AcDbEntity
100
AcDbBlockBegin
2
*PAPER_SPACE
0
ENDBLK
5
1D
100
AcDbEntity
100
AcDbBlockEnd
0
ENDSEC
0
SECTION
2
ENTITIES
0
SPLINE
5
100
100
AcDbEntity
8
0
100
AcDbSpline
70
1064
71
3
72
38
73
34
74
0
42
0.000000001
43
0.0000000001
44
0.0000000001
40
0
40
0
40
0
40
0
40
0.093516045986580754
40
0.093516045986580754
40
0.18784745558139551
40
0.18784745558139551
40
0.28322877859188583
40
0.28322877859188583
40
0.37958472207491756
40
0.37958472207491756
40
0.47603370937146161
40
0.47603370937146161
40
0.57162991428609711
40
0.57162991428609711
40
0.66606928616066707
40
0.66606928616066707
40
0.7595008757826236
40
0.7595008757826236
40
0.85293246540458012
40
0.85293246540458012
40
0.94737183727915009
40
0.94737183727915009
40
1.0429680421937855
40
1.0429680421937855
40
1.1394170294903296
40
1.1394170294903296
40
1.2357729729733613
40
1.2357729729733613
40
1.3311542959838516
40
1.3311542959838516
40
1.4254857055786663
40
1.4254857055786663
40
1.519001751565247
40
1.519001751565247
40
1.519001751565247
40
1.519001751565247
10
0.55000001755286387
20
-1.9664117683101541
30
0
10
0.53772757057299769
20
-1.9664117683101541
30
0
10
0.52329044997434337
20
-1.9635045008924683
30
0
10
0.5005480017989723
20
-1.9539915055941861
30
0
10
0.48824529921554749
20
-1.9456653637240016
30
0
10
0.4707328275397315
20
-1.9279690868999846
30
0
10
0.46246444804782677
20
-1.9154289612249964
30
0
10
0.4529202022490269
20
-1.8921469449249266
30
0
10
0.45000001755286384
20
-1.877256418258803
30
0
10
0.45000001755286384
20
-1.8519539339045277
30
0
10
0.45292460430680942
20
-1.8370493389401525
30
0
10
0.46247370988305325
20
-1.8137256437058149
30
0
10
0.47075044118375142
20
-1.8011504973755956
30
0
10
0.48827429825307617
20
-1.7834058995591475
30
0
10
0.50057973008181278
20
-1.7750534804550193
30
0
10
0.52331652865993561
20
-1.7655190104044918
30
0
10
0.53773865408541544
20
-1.7626046687484411
30
0
10
0.5622613810203122
20
-1.7626046687484411
30
0
10
0.57668350644579203
20
-1.7655190104044918
30
0
10
0.59942030502391497
20
-1.7750534804550193
30
0
10
0.61172573685265152
20
-1.7834058995591475
30
0
10
0.62924959392197621
20
-1.8011504973755956
30
0
10
0.63752632522267449
20
-1.8137256437058149
30
0
10
0.64707543079891827
20
-1.8370493389401525
30
0
10
0.65000001755286385
20
-1.8519539339045277
30
0
10
0.65000001755286385
20
-1.877256418258803
30
0
10
0.64707983285670079
20
-1.8921469449249266
30
0
10
0.63753558705790092
20
-1.9154289612249964
30
0
10
0.62926720756599619
20
-1.9279690868999846
30
0
10
0.61175473589018015
20
-1.9456653637240016
30
0
10
0.59945203330675534
20
-1.9539915055941861
30
0
10
0.57670958513138437
20
-1.9635045008924683
30
0
10
0.56227246453273005
20
-1.9664117683101541
30
0
10
0.55000001755286387
20
-1.9664117683101541
30
0
0
SPLINE
5
101
100
AcDbEntity
8
0
100
AcDbSpline
70
1064
71
3
72
38
73
34
74
0
42
0.000000001
43
0.0000000001
44
0.0000000001
40
0
40
0
40
0
40
0
40
0.093487361678210479
40
0.093487361678210479
40
0.18783393759379113
40
0.18783393759379113
40
0.28328901708853971
40
0.28328901708853971
40
0.37977659454272678
40
0.37977659454272678
40
0.47636545445994088
40
0.47636545445994088
40
0.57205442063665402
40
0.57205442063665402
40
0.66651846621014965
40
0.66651846621014965
40
0.75991402010455411
40
0.75991402010455411
40
0.85330957399895857
40
0.85330957399895857
40
0.94777361957245421
40
0.94777361957245421
40
1.0434625857491673
40
1.0434625857491673
40
1.1400514456663813
40
1.1400514456663813
40
1.2365390231205675
40
1.2365390231205675
40
1.3319941026153168
40
1.3319941026153168
40
1.4263406785308974
40
1.4263406785308974
40
1.519828040209108
40
1.519828040209108
40
1.519828040209108
40
1.519828040209108
10
1.3743974918516484
20
-1.9147733287259303
30
0
10
1.3621288092167125
20
-1.9147733287259303
30
0
10
1.3476964847141901
20
-1.9118651273172851
30
0
10
1.3249574451448083
20
-1.9023485814346244
30
0
10
1.312655419964617
20
-1.894017178649523
30
0
10
1.2951397382444667
20
-1.8763076620175825
30
0
10
1.2868691732081872
20
-1.8637550656122976
30
0
10
1.2773193747604217
20
-1.8404461950577049
30
0
10
1.2743974918516481
20
-1.8255348769874982
30
0
10
1.2743974918516481
20
-1.8001967618468944
30
0
10
1.2773241638861355
20
-1.7852701289890538
30
0
10
1.2868792422374937
20
-1.7619158908930539
30
0
10
1.2951588882435712
20
-1.7493251761905073
30
0
10
1.3126869490653077
20
-1.7315630723844333
30
0
10
1.3249919348755523
20
-1.7232030799630527
30
0
10
1.3477248358228691
20
-1.7136631732352563
30
0
10
1.362140857482304
20
-1.7107472782703157
30
0
10
1.3866541262209928
20
-1.7107472782703157
30
0
10
1.4010701478804277
20
-1.7136631732352563
30
0
10
1.4238030488277444
20
-1.7232030799630527
30
0
10
1.4361080346379889
20
-1.7315630723844333
30
0
10
1.4536360954597254
20
-1.7493251761905073
30
0
10
1.4619157414658031
20
-1.7619158908930539
30
0
10
1.4714708198171611
20
-1.7852701289890538
30
0
10
1.4743974918516485
20
-1.8001967618468944
30
0
10
1.4743974918516485
20
-1.8255348769874982
30
0
10
1.4714756089428749
20
-1.8404461950577049
30
0
10
1.4619258104951094
20
-1.8637550656122974
30
0
10
1.4536552454588301
20
-1.8763076620175823
30
0
10
1.4361395637386796
20
-1.894017178649523
30
0
10
1.4238375385584885
20
-1.9023485814346244
30
0
10
1.4010984989891067
20
-1.9118651273172851
30
0
10
1.386666174486584
20
-1.9147733287259303
30
0
10
1.3743974918516484
20
-1.9147733287259303
30
0
0
SPLINE
5
102
100
AcDbEntity
8
0
100
AcDbSpline
70
1064
71
3
72
38
73
34
74
0
42
0.000000001
43
0.0000000001
44
0.0000000001
40
0
40
0
40
0
40
0
40
0.093406396571411851
40
0.093406396571411851
40
0.18779549220478609
40
0.18779549220478609
40
0.28345904567097563
40
0.28345904567097563
40
0.38032064373015889
40
0.38032064373015889
40
0.47730827550310173
40
0.47730827550310173
40
0.57326279744047048
40
0.57326279744047048
40
0.66779788799316575
40
0.66779788799316575
40
0.7610904870779498
40
0.7610904870779498
40
0.85438308616273384
40
0.85438308616273384
40
0.94891817671542866
40
0.94891817671542866
40
1.0448726986527974
40
1.0448726986527974
40
1.1418603304257411
40
1.1418603304257411
40
1.2387219284849242
40
1.2387219284849242
40
1.3343854819511138
40
1.3343854819511138
40
1.428774577584488
40
1.428774577584488
40
1.5221809741558998
40
1.5221809741558998
40
1.5221809741558998
40
1.5221809741558998
10
2.0815849227608658
20
-1.7883102089140412
30
0
10
2.0693268654680295
20
-1.7883102089140412
30
0
10
2.0549080753555691
20
-1.7853993934838173
30
0
10
2.0321786803459756
20
-1.775872880051145
30
0
10
2.019878600469649
20
-1.767526674264952
30
0
10
2.00235386723201
20
-1.7497797929007841
30
0
10
1.9940771484983359
20
-1.7371919430299032
30
0
10
1.9845116008980366
20
-1.7138069194565191
30
0
10
1.981584922760866
20
-1.6988365214635903
30
0
10
1.981584922760866
20
-1.673396989989558
30
0
10
1.9845175507996338
20
-1.6584075317894
30
0
10
1.9940896327002553
20
-1.6349660601152962
30
0
10
2.0023776152174606
20
-1.6223307878417876
30
0
10
2.019917702044137
20
-1.6045185112759772
30
0
10
2.0322214298995305
20
-1.5961367792886902
30
0
10
2.0549432256931475
20
-1.5865812500344312
30
0
10
2.0693417995213927
20
-1.5836608857252175
30
0
10
2.0938280460003389
20
-1.5836608857252175
30
0
10
2.1082266198285842
20
-1.5865812500344312
30
0
10
2.1309484156222012
20
-1.5961367792886902
30
0
10
2.1432521434775942
20
-1.6045185112759772
30
0
10
2.160792230304271
20
-1.6223307878417874
30
0
10
2.1690802128214766
20
-1.6349660601152958
30
0
10
2.1786522947220979
20
-1.6584075317894
30
0
10
2.1815849227608655
20
-1.673396989989558
30
0
10
2.1815849227608655
20
-1.6988365214635903
30
0
10
2.1786582446236951
20
-1.7138069194565191
30
0
10
2.1690926970233959
20
-1.7371919430299032
30
0
10
2.1608159782897216
20
-1.7497797929007841
30
0
10
2.1432912450520827
20
-1.767526674264952
30
0
10
2.130991165175756
20
-1.775872880051145
30
0
10
2.1082617701661626
20
-1.7853993934838173
30
0
10
2.0938429800537022
20
-1.7883102089140412
30
0
10
2.0815849227608658
20
-1.7883102089140412
30
0
0
SPLINE
5
103
100
AcDbEntity
8
0
100
AcDbSpline
70
1064
71
3
72
38
73
34
74
0
42
0.000000001
43
0.0000000001
44
0.0000000001
40
0
40
0
40
0
40
0
40
0.093908966652584996
40
0.093908966652584996
40
0.18889746369459937
40
0.18889746369459937
40
0.284142415690468
40
0.284142415690468
40
0.38067618134240888
40
0.38067618134240888
40
0.47727611241878148
40
0.47727611241878148
40
0.57277746294036169
40
0.57277746294036169
40
0.66801076981063245
40
0.66801076981063245
40
0.76186330121676815
40
0.76186330121676815
40
0.85508808370076728
40
0.85508808370076728
40
0.94967040498883948
40
0.94967040498883948
40
1.045800286487518
40
1.045800286487518
40
1.1430499704560488
40
1.1430499704560488
40
1.2401563806892901
40
1.2401563806892901
40
1.3359555453628074
40
1.3359555453628074
40
1.430372033825392
40
1.430372033825392
40
1.523725850239563
40
1.523725850239563
40
1.523725850239563
40
1.523725850239563
10
-0.26135521829098468
20
-1.7183761632651677
30
0
10
-0.27367922966271502
20
-1.7183761632651677
30
0
10
-0.28817147458858211
20
-1.7154293266448148
30
0
10
-0.31100867504392332
20
-1.705786133494132
30
0
10
-0.32335254062200114
20
-1.6973365635958293
30
0
10
-0.34080277697476152
20
-1.6794832318954733
30
0
10
-0.34899273238084799
20
-1.6669173740958698
30
0
10
-0.35845945505599991
20
-1.6435978574204624
30
0
10
-0.36135521829098466
20
-1.6286740354672855
30
0
10
-0.36135521829098466
20
-1.6033284059753807
30
0
10
-0.35845727805335431
20
-1.5883943923491992
30
0
10
-0.34899750435044419
20
-1.5650263813464429
30
0
10
-0.34080668942567544
20
-1.552412912337398
30
0
10
-0.32334963617835022
20
-1.5344743508868899
30
0
10
-0.31099558043921488
20
-1.5259715014512412
30
0
10
-0.28815182677405726
20
-1.5162803671485767
30
0
10
-0.27367182346239355
20
-1.5133179825111822
30
0
10
-0.24912099486788772
20
-1.5133179825111822
30
0
10
-0.23473392128928203
20
-1.5162413153056471
30
0
10
-0.21201941685404416
20
-1.5258072055399221
30
0
10
-0.19971650561961785
20
-1.5342033381780547
30
0
10
-0.18216848489099921
20
-1.5520487900009645
30
0
10
-0.1738750040256998
20
-1.5647134769528599
30
0
10
-0.16429176841104204
20
-1.5882123957975089
30
0
10
-0.16135521829098473
20
-1.6032431365669608
30
0
10
-0.16135521829098473
20
-1.6287491856748051
30
0
10
-0.16428501173968346
20
-1.6437582569248115
30
0
10
-0.17386084583210368
20
-1.6671930105031414
30
0
10
-0.18214154899907126
20
-1.6798037960884113
30
0
10
-0.19967215338999525
20
-1.6975749386822976
30
0
10
-0.21197094438881209
20
-1.7059307222965132
30
0
10
-0.23469405822023079
20
-1.7154636672544439
30
0
10
-0.24910406128125095
20
-1.7183761632651677
30
0
10
-0.26135521829098468
20
-1.7183761632651677
30
0
0
LWPOLYLINE
5
104
100
AcDbEntity
8
0
100
AcDbPolyline
90
4
70
1
43
0.0
10
1.4708558449360238
20
-4.3864744496002928
10
1.5563608779529488
20
-4.621397597064016
10
1.6673481953686073
20
-4.5810015171436609
10
1.5818431623516824
20
-4.3460783696799385
0
SPLINE
5
105
100
AcDbEntity
8
0
100
AcDbSpline
70
1064
71
3
72
28
73
24
74
0
42
0.000000001
43
0.0000000001
44
0.0000000001
40
103.19513149612496
40
103.19513149612496
40
103.19513149612496
40
103.19513149612496
40
114.38028986942858
40
114.38028986942858
40
135.22306682536856
40
135.22306682536856
40
190.26701702766829
40
190.26701702766829
40
199.81802234230869
40
199.81802234230869
40
206.88840190623446
40
206.88840190623446
40
213.69411385252386
40
213.69411385252386
40
223.36637988018416
40
223.36637988018416
40
240.67043110050511
40
240.67043110050511
40
289.97113536524756
40
289.97113536524756
40
345.58822142698943
40
345.58822142698943
40
355.26012580895105
40
355.26012580895105
40
355.26012580895105
40
355.26012580895105
10
1.6418308451328936
20
-4.8562244019324377
30
0
10
1.6660228975324598
20
-4.9226915196306678
30
0
10
1.6785636192375872
20
-4.9924534507460532
30
0
10
1.6918020385401071
20
-5.1963717303835972
30
0
10
1.6735074089661157
20
-5.3418960714842934
30
0
10
1.5598505584155693
20
-5.8887056099296942
30
0
10
1.3896384278502194
20
-6.3027404664246518
30
0
10
1.3986918192550994
20
-6.6061229821255818
30
0
10
1.4053989687301307
20
-6.6477237815923385
30
0
10
1.4307759340340818
20
-6.7115293444784729
30
0
10
1.445868388380509
20
-6.7358767921940554
30
0
10
1.4859125606462402
20
-6.776923603682385
30
0
10
1.5090386225318964
20
-6.7923996568213667
30
0
10
1.5707181622611941
20
-6.8211426689367949
30
0
10
1.6111644819837965
20
-6.8304639092387287
30
0
10
1.7213356279013121
20
-6.844453299762173
30
0
10
1.8090333040295485
20
-6.842253921847516
30
0
10
2.2273157137964121
20
-6.7876455416427204
30
0
10
2.6386611024043276
20
-6.6582801125541335
30
0
10
3.0756664761043759
20
-6.5126790480115915
30
0
10
3.3760334662223368
20
-6.4033504779724915
30
0
10
3.6459620825004846
20
-6.2583148390236998
30
0
10
3.683883425377783
20
-6.2363588868088833
30
0
10
3.7193288474151038
20
-6.2138777700405985
30
0
0
SPLINE
5
106
100
AcDbEntity
8
0
100
AcDbSpline
70
1064
71
3
72
8
73
4
74
0
42
0.000000001
43
0.0000000001
44
0.0000000001
40
355.26012580895105
40
355.26012580895105
40
355.26012580895105
40
355.26012580895105
40
361.05987843718879
40
361.05987843718879
40
361.05987843718879
40
361.05987843718879
10
3.7193288474151038
20
-6.2138777700405985
30
0
10
3.7405836770227401
20
-6.2003969796074596
30
0
10
3.7609481350383849
20
-6.1867272227949544
30
0
10
3.7803332713847868
20
-6.1728558513564007
30
0
0
SPLINE
5
107
100
AcDbEntity
8
0
100
AcDbSpline
70
1064
71
3
72
62
73
58
74
0
42
0.000000001
43
0.0000000001
44
0.0000000001
40
361.05987843718879
40
361.05987843718879
40
361.05987843718879
40
361.05987843718879
40
375.4708376454621
40
375.4708376454621
40
390.24544379544227
40
390.24544379544227
40
400.6774960393052
40
400.6774960393052
40
410.31928865051049
40
410.31928865051049
40
421.77696462639261
40
421.77696462639261
40
432.65804173608905
40
432.65804173608905
40
442.48381880546691
40
442.48381880546691
40
451.06467707273197
40
451.06467707273197
40
456.50015813188048
40
456.50015813188048
40
464.05242677754944
40
464.05242677754944
40
483.45586695272732
40
483.45586695272732
40
498.39964938908184
40
498.39964938908184
40
529.95997095775886
40
529.95997095775886
40
544.48412277491207
40
544.48412277491207
40
551.55442991002519
40
551.55442991002519
40
557.15305042762941
40
557.15305042762941
40
562.60617941271266
40
562.60617941271266
40
570.89861682792002
40
570.89861682792002
40
584.80032062318151
40
584.80032062318151
40
588.17935690405341
40
588.17935690405341
40
590.64096771312143
40
590.64096771312143
40
592.93877536341199
40
592.93877536341199
40
596.14182003749409
40
596.14182003749409
40
602.39612515313547
40
602.39612515313547
40
621.72281835558431
40
621.72281835558431
40
631.47972048016777
40
631.47972048016777
40
636.37379181600204
40
636.37379181600204
40
641.50487461857563
40
641.50487461857563
40
641.50487461857563
40
641.50487461857563
10
3.7803332713847868
20
-6.1728558513564007
30
0
10
3.8285005686889289
20
-6.1383889040954918
30
0
10
3.8706236611532145
20
-6.1026803868398733
30
0
10
3.9408977860079899
20
-6.0274140201135387
30
0
10
3.9722501591702635
20
-5.9839370790608886
30
0
10
4.0052440327585348
20
-5.9013121938706687
30
0
10
4.0124785928438538
20
-5.8657354568316054
30
0
10
4.0113769754120439
20
-5.7949762328931333
30
0
10
4.0041906992664966
20
-5.7619277278309635
30
0
10
3.9765147344486196
20
-5.6929609481033046
30
0
10
3.9540245810300245
20
-5.6583474595489562
30
0
10
3.9020549811973444
20
-5.5994713947804344
30
0
10
3.8639807434882067
20
-5.5643639415292601
30
0
10
3.7623049902815655
20
-5.5113194793583116
30
0
10
3.7185809839848507
20
-5.5010107158623072
30
0
10
3.6472457124289339
20
-5.4804520597820829
30
0
10
3.6180498066219386
20
-5.4702894413594283
30
0
10
3.5743528853633224
20
-5.4352706392401258
30
0
10
3.5585915960328491
20
-5.4173372284867227
30
0
10
3.5220006284217522
20
-5.3578759486632528
30
0
10
3.5028079640108083
20
-5.3118541000783521
30
0
10
3.4323515132017435
20
-5.09629142112147
30
0
10
3.377844158695821
20
-4.8456945603764625
30
0
10
3.2285478804311385
20
-4.2921998155759438
30
0
10
3.1600438330383209
20
-4.0697589207885621
30
0
10
2.9303781341075439
20
-3.3829430846720747
30
0
10
2.8657951738506844
20
-3.2569164838633275
30
0
10
2.6609275441096996
20
-2.9515206677525003
30
0
10
2.6046244708585009
20
-2.875466315843604
30
0
10
2.5521951070379165
20
-2.7711299705569838
30
0
10
2.5395630680603389
20
-2.7375120470390932
30
0
10
2.5302987162427089
20
-2.6774270699404612
30
0
10
2.5309596560466194
20
-2.651342526841427
30
0
10
2.5436960949407164
20
-2.5997915945269265
30
0
10
2.5549788900582748
20
-2.5763795809535179
30
0
10
2.5910281189171096
20
-2.5212732698505098
30
0
10
2.6203169217631492
20
-2.4907474805278875
30
0
10
2.7034589200031403
20
-2.4135111176299895
30
0
10
2.7583071347154577
20
-2.3719079422310854
30
0
10
2.7910129333058422
20
-2.3249010886639394
30
0
10
2.7959069835398367
20
-2.3156844609615508
30
0
10
2.8004772453441036
20
-2.2996132113095475
30
0
10
2.8012217758040383
20
-2.2927355840927892
30
0
10
2.7996446432722104
20
-2.2791992547011621
30
0
10
2.7975815353124625
20
-2.273052023036584
30
0
10
2.7903074018846361
20
-2.2590970259357257
30
0
10
2.7842520326234546
20
-2.2517569792471921
30
0
10
2.7651760477375715
20
-2.2327404589402726
30
0
10
2.7478802871437158
20
-2.2204600673131987
30
0
10
2.6632312467109043
20
-2.1687708520945974
30
0
10
2.5683239091986536
20
-2.1272720047733515
30
0
10
2.4524281811286048
20
-2.0392189429706771
30
0
10
2.4190059732225522
20
-2.0060365447753505
30
0
10
2.3837873039260238
20
-1.9474685711310245
30
0
10
2.3747540913330103
20
-1.9268058428121222
30
0
10
2.3622774925857164
20
-1.8817295979356761
30
0
10
2.3594083009880951
20
-1.8582023792644609
30
0
10
2.3594083009880951
20
-1.834268375787059
30
0
0
LINE
5
108
100
AcDbEntity
8
0
100
AcDbLine
10
2.3594083009880951
20
-1.834268375787059
30
0
11
2.3594083009880951
21
-1.6339695360873303
31
0
0
LINE
5
109
100
AcDbEntity
8
0
100
AcDbLine
10
2.3594083009880951
20
-1.6339695360873303
30
0
11
2.477516328026411
21
-1.6339695360873303
31
0
0
LINE
5
110
100
AcDbEntity
8
0
100
AcDbLine
10
2.477516328026411
20
-1.6339695360873303
30
0
11
2.477516328026411
21
-1.4500000462757319
31
0
0
LINE
5
111
100
AcDbEntity
8
0
100
AcDbLine
10
2.477516328026411
20
-1.4500000462757319
30
0
11
1.7912616705530244
21
-1.5500000494671617
31
0
0
LINE
5
112
100
AcDbEntity
8
0
100
AcDbLine
10
1.7912616705530244
20
-1.5500000494671617
30
0
11
1.7912616705530244
21
-1.7500000558500213
31
0
0
LINE
5
113
100
AcDbEntity
8
0
100
AcDbLine
10
1.7912616705530244
20
-1.7500000558500213
30
0
11
1.673151434332552
21
-1.7500000558500213
31
0
0
LINE
5
114
100
AcDbEntity
8
0
100
AcDbLine
10
1.673151434332552
20
-1.7500000558500213
30
0
11
1.673151434332552
21
-1.5620759031809026
31
0
0
LINE
5
115
100
AcDbEntity
8
0
100
AcDbLine
10
1.673151434332552
20
-1.5620759031809026
30
0
11
1.0181102362204726
21
-1.6358653699207746
31
0
0
LINE
5
116
100
AcDbEntity
8
0
100
AcDbLine
10
1.0181102362204726
20
-1.6358653699207746
30
0
11
1.0181102362204726
21
-1.8356290955371768
31
0
0
LINE
5
117
100
AcDbEntity
8
0
100
AcDbLine
10
1.0181102362204726
20
-1.8356290955371768
30
0
11
0.90000000000000024
21
-1.8356290955371768
31
0
0
LINE
5
118
100
AcDbEntity
8
0
100
AcDbLine
10
0.90000000000000024
20
-1.8356290955371768
30
0
11
0.90000000000000024
21
-1.6500000526585916
31
0
0
SPLINE
5
119
100
AcDbEntity
8
0
100
AcDbSpline
70
1064
71
3
72
10
73
6
74
0
42
0.000000001
43
0.0000000001
44
0.0000000001
40
0
40
0
40
0
40
0
40
1.7158439469366167
40
1.7158439469366167
40
3.3157018058121039
40
3.3157018058121039
40
3.3157018058121039
40
3.3157018058121039
10
0.90000000000000024
20
-1.6500000526585916
30
0
10
0.6758034177189185
20
-1.6709831540805373
30
0
10
0.51215987104728611
20
-1.6688121959333693
30
0
10
0.25118902561877215
20
-1.6177882188975592
30
0
10
0.16818461430241696
20
-1.5759677250434208
30
0
10
0.11811023622047251
20
-1.5443899979029494
30
0
0
LINE
5
120
100
AcDbEntity
8
0
100
AcDbLine
10
0.11811023622047249
20
-1.5443899979029494
30
0
11
0.11811023622047238
21
-1.7791859921911071
31
0
0
LINE
5
121
100
AcDbEntity
8
0
100
AcDbLine
10
0.11811023622047238
20
-1.7791859921911071
30
0
11
-6.556435184794231e-17
21
-1.7791859921911071
31
0
0
LINE
5
122
100
AcDbEntity
8
0
100
AcDbLine
10
-6.556435184794231e-17
20
-1.7791859921911071
30
0
11
-6.556435184794231e-17
21
-1.5000000478714468
31
0
0
LINE
5
123
100
AcDbEntity
8
0
100
AcDbLine
10
-6.556435184794231e-17
20
-1.5000000478714468
30
0
11
-0.59599999999999653
21
-1.0638849591609116
31
0
0
LINE
5
124
100
AcDbEntity
8
0
100
AcDbLine
10
-0.59599999999999653
20
-1.0638849591609116
30
0
11
-0.59599999999999653
21
-1.3000000319553644
31
0
0
LINE
5
125
100
AcDbEntity
8
0
100
AcDbLine
10
-0.59599999999999653
20
-1.3000000319553644
30
0
11
-0.71411023622046887
21
-1.3000000319553644
31
0
0
LINE
5
126
100
AcDbEntity
8
0
100
AcDbLine
10
-0.71411023622046887
20
-1.3000000319553644
30
0
11
-0.71411023622046887
21
-1.0638849591609116
31
0
0
LINE
5
127
100
AcDbEntity
8
0
100
AcDbLine
10
-0.71411023622046887
20
-1.0638849591609116
30
0
11
-1.12933333333333
21
-1.0638849591609116
31
0
0
LINE
5
128
100
AcDbEntity
8
0
100
AcDbLine
10
-1.12933333333333
20
-1.0638849591609116
30
0
11
-1.12933333333333
21
-1.3000000319553642
31
0
0
LINE
5
129
100
AcDbEntity
8
0
100
AcDbLine
10
-1.12933333333333
20
-1.3000000319553642
30
0
11
-1.2474435695538024
21
-1.3000000319553642
31
0
0
LINE
5
130
100
AcDbEntity
8
0
100
AcDbLine
10
-1.2474435695538024
20
-1.3000000319553642
30
0
11
-1.2474435695538024
21
-1.0638849591609116
31
0
0
LINE
5
131
100
AcDbEntity
8
0
100
AcDbLine
10
-1.2474435695538024
20
-1.0638849591609116
30
0
11
-1.6626666666666634
21
-1.0638849591609116
31
0
0
LINE
5
132
100
AcDbEntity
8
0
100
AcDbLine
10
-1.6626666666666634
20
-1.0638849591609116
30
0
11
-1.6626666666666634
21
-1.3000000319553642
31
0
0
LINE
5
133
100
AcDbEntity
8
0
100
AcDbLine
10
-1.6626666666666634
20
-1.3000000319553642
30
0
11
-1.7807769028871359
21
-1.3000000319553642
31
0
0
LINE
5
134
100
AcDbEntity
8
0
100
AcDbLine
10
-1.7807769028871359
20
-1.3000000319553642
30
0
11
-1.7807769028871359
21
-1.0638849591609116
31
0
0
LINE
5
135
100
AcDbEntity
8
0
100
AcDbLine
10
-1.7807769028871359
20
-1.0638849591609116
30
0
11
-2.1959999999999966
21
-1.0638849591609116
31
0
0
LINE
5
136
100
AcDbEntity
8
0
100
AcDbLine
10
-2.1959999999999966
20
-1.0638849591609116
30
0
11
-2.1959999999999966
21
-1.3000000319553642
31
0
0
LINE
5
137
100
AcDbEntity
8
0
100
AcDbLine
10
-2.1959999999999966
20
-1.3000000319553642
30
0
11
-2.3141102362204693
21
-1.3000000319553642
31
0
0
LINE
5
138
100
AcDbEntity
8
0
100
AcDbLine
10
-2.3141102362204693
20
-1.3000000319553642
30
0
11
-2.3141102362204693
21
-1.0666987820986478
31
0
0
LINE
5
139
100
AcDbEntity
8
0
100
AcDbLine
10
-2.3141102362204693
20
-1.0666987820986478
30
0
11
-2.8180000000000001
21
-0.47664855995002453
31
0
0
LINE
5
140
100
AcDbEntity
8
0
100
AcDbLine
10
-2.8180000000000001
20
-0.47664855995002453
30
0
11
-2.8179999999999779
21
-0.70147630542261885
31
0
0
LINE
5
141
100
AcDbEntity
8
0
100
AcDbLine
10
-2.8179999999999779
20
-0.70147630542261885
30
0
11
-2.9361102362204505
21
-0.70147630542261885
31
0
0
LINE
5
142
100
AcDbEntity
8
0
100
AcDbLine
10
-2.9361102362204505
20
-0.70147630542261885
30
0
11
-2.9361102362204505
21
-0.50147629903975943
31
0
0
LINE
5
143
100
AcDbEntity
8
0
100
AcDbLine
10
-2.9361102362204505
20
-0.50147629903975943
30
0
11
-3.2510367454068243
21
-0.50147629903975943
31
0
0
LINE
5
144
100
AcDbEntity
8
0
100
AcDbLine
10
-3.2510367454068243
20
-0.50147629903975943
30
0
11
-3.2510367454068021
21
-0.70147630542261885
31
0
0
LINE
5
145
100
AcDbEntity
8
0
100
AcDbLine
10
-3.2510367454068021
20
-0.70147630542261885
30
0
11
-3.3691469816272748
21
-0.70147630542261885
31
0
0
LINE
5
146
100
AcDbEntity
8
0
100
AcDbLine
10
-3.3691469816272748
20
-0.70147630542261885
30
0
11
-3.3691469816272748
21
-0.50147629903975943
31
0
0
LINE
5
147
100
AcDbEntity
8
0
100
AcDbLine
10
-3.3691469816272748
20
-0.50147629903975943
30
0
11
-3.6840734908136259
21
-0.50147629903975943
31
0
0
LINE
5
148
100
AcDbEntity
8
0
100
AcDbLine
10
-3.6840734908136259
20
-0.50147629903975943
30
0
11
-3.6840734908136259
21
-0.70147630542261863
31
0
0
LINE
5
149
100
AcDbEntity
8
0
100
AcDbLine
10
-3.6840734908136259
20
-0.70147630542261863
30
0
11
-3.8021837270340986
21
-0.70147630542261863
31
0
0
LINE
5
150
100
AcDbEntity
8
0
100
AcDbLine
10
-3.8021837270340986
20
-0.70147630542261863
30
0
11
-3.8021837270341226
21
-0.50147629903975943
31
0
0
LINE
5
151
100
AcDbEntity
8
0
100
AcDbLine
10
-3.8021837270341226
20
-0.50147629903975943
30
0
11
-4.2352204724409468
21
-0.50147629903975943
31
0
0
LINE
5
152
100
AcDbEntity
8
0
100
AcDbLine
10
-4.2352204724409468
20
-0.50147629903975943
30
0
11
-4.8735677703203883
21
-0.64217954359902851
31
0
0
ARC
5
153
100
AcDbEntity
8
0
100
AcDbCircle
10
-4.8671102362204497
20
-0.67147630542261849
30
0
40
0.030000000000000381
100
AcDbArc
50
102.43026135307917
51
270
0
LINE
5
154
100
AcDbEntity
8
0
100
AcDbLine
10
-4.8671102362204497
20
-0.70147630542261885
30
0
11
-4.1171102362204506
21
-0.70147630542261863
31
0
0
LINE
5
155
100
AcDbEntity
8
0
100
AcDbLine
10
-4.1171102362204506
20
-0.70147630542261863
30
0
11
-4.1171102362204506
21
-0.90000002872286811
31
0
0
LINE
5
156
100
AcDbEntity
8
0
100
AcDbLine
10
-4.1171102362204506
20
-0.90000002872286811
30
0
11
-2.9952102793912045
21
-0.90000002872286811
31
0
0
SPLINE
5
157
100
AcDbEntity
8
0
100
AcDbSpline
70
1064
71
3
72
14
73
10
74
0
42
0.000000001
43
0.0000000001
44
0.0000000001
40
0
40
0
40
0
40
0
40
0.19844739248055912
40
0.19844739248055912
40
0.39689478496111819
40
0.39689478496111819
40
0.53950094565693951
40
0.53950094565693951
40
0.68210710635276106
40
0.68210710635276106
40
0.68210710635276106
40
0.68210710635276106
10
-2.8005425716475711
20
-1.0541253781864401
30
0
10
-2.8065161312144418
20
-1.0287767567941228
30
0
10
-2.817383729723455
20
-1.0048372510540051
30
0
10
-2.8476835955601789
20
-0.96247143686571723
30
0
10
-2.8668261796557886
20
-0.94445016869234044
30
0
10
-2.9047348474112691
20
-0.92065556428444839
30
0
10
-2.9219040853743619
20
-0.91298012968689757
30
0
10
-2.9578731295246166
20
-0.90262683409781397
30
0
10
-2.9764955601397842
20
-0.900000028722868
30
0
10
-2.9952102793912045
20
-0.900000028722868
30
0
0
SPLINE
5
158
100
AcDbEntity
8
0
100
AcDbSpline
70
1064
71
3
72
58
73
54
74
0
42
0.000000001
43
0.0000000001
44
0.0000000001
40
0.40087397115068035
40
0.40087397115068035
40
0.40087397115068035
40
0.40087397115068035
40
0.66772145584960063
40
0.66772145584960063
40
1.3186854667736587
40
1.3186854667736587
40
2.2447224050866188
40
2.2447224050866188
40
3.9956992417805957
40
3.9956992417805957
40
6.1840695651476061
40
6.1840695651476061
40
8.9034599312695732
40
8.9034599312695732
40
10.438027528237914
40
10.438027528237914
40
13.808430886665034
40
13.808430886665034
40
17.507555307226554
40
17.507555307226554
40
25.477371494057742
40
25.477371494057742
40
33.374037725655242
40
33.374037725655242
40
37.658037490271056
40
37.658037490271056
40
41.978190572119772
40
41.978190572119772
40
49.410851672650473
40
49.410851672650473
40
52.919736247250697
40
52.919736247250697
40
55.741600922674188
40
55.741600922674188
40
62.686475799508102
40
62.686475799508102
40
66.725673697710576
40
66.725673697710576
40
69.955562648796828
40
69.955562648796828
40
74.989343974675535
40
74.989343974675535
40
80.848131515583148
40
80.848131515583148
40
83.585020575259776
40
83.585020575259776
40
86.071301054080749
40
86.071301054080749
40
90.971222140121696
40
90.971222140121696
40
100.43570896623328
40
100.43570896623328
40
103.19513149612496
40
103.19513149612496
40
103.19513149612496
40
103.19513149612496
10
-2.8005425716475716
20
-1.0541253781864399
30
0
10
-2.7926764655948451
20
-1.0875049639979264
30
0
10
-2.7820742208426665
20
-1.1203407225358848
30
0
10
-2.7356427299592725
20
-1.2314131205121492
30
0
10
-2.6877245208649576
20
-1.3015133124710934
30
0
10
-2.5474000683198121
20
-1.4532683756046287
30
0
10
-2.4451946778438773
20
-1.5267537007819458
30
0
10
-2.1412350955902029
20
-1.7011359749552
30
0
10
-1.9053965571809117
20
-1.7834379197415033
30
0
10
-1.4064953067850385
20
-1.9169895912745711
30
0
10
-1.1416405907759184
20
-1.9582194456149631
30
0
10
-0.70769400109460201
20
-2.0201678958502938
30
0
10
-0.56135841190455926
20
-2.0354530536965383
30
0
10
-0.37921006419279341
20
-2.1058496088400616
30
0
10
-0.31705419121888184
20
-2.1429821639491609
30
0
10
-0.042965704878287811
20
-2.3666047117418376
30
0
10
0.22054206655369082
20
-2.6472408417026121
30
0
10
0.31196865261245699
20
-2.7446767030730395
30
0
10
0.33447572088408523
20
-2.7689355376577125
30
0
10
0.45422503079110554
20
-2.8640315228348907
30
0
10
0.60973704496220682
20
-2.9578874411899525
30
0
10
0.93004309739029389
20
-3.1826966497253086
30
0
10
1.0209566739953939
20
-3.2615169614031938
30
0
10
1.0975847024889713
20
-3.3640352912394831
30
0
10
1.1138758221599081
20
-3.3983647420030878
30
0
10
1.1333306957940332
20
-3.4760465141557524
30
0
10
1.136095100447309
20
-3.5185492023976321
30
0
10
1.1369914059674382
20
-3.6492525439900425
30
0
10
1.130141699247952
20
-3.7491454133725579
30
0
10
1.1382186824223319
20
-3.8430534251839901
30
0
10
1.143347344394928
20
-3.8627003660845749
30
0
10
1.1587446605556146
20
-3.8927873332917327
30
0
10
1.1681706366929405
20
-3.904975351601371
30
0
10
1.2146732283255313
20
-3.9550218626804887
30
0
10
1.2836930640851982
20
-4.0168928727985698
30
0
10
1.3592087966099453
20
-4.1018442423808041
30
0
10
1.374489710770799
20
-4.1243698734431984
30
0
10
1.3906741178211706
20
-4.1645117875824695
30
0
10
1.3944265440693078
20
-4.1836478140354689
30
0
10
1.3968254055476117
20
-4.2450565390950867
30
0
10
1.3913054664237932
20
-4.2906140338307743
30
0
10
1.3789161866468196
20
-4.3999924735608236
30
0
10
1.3732488472194462
20
-4.454263001333759
30
0
10
1.3814577737788205
20
-4.5133636490748632
30
0
10
1.3863384482587497
20
-4.5277534465932172
30
0
10
1.399950668229063
20
-4.5510830721657003
30
0
10
1.4082443859378155
20
-4.5603216350421425
30
0
10
1.4379183573235004
20
-4.5872372227628979
30
0
10
1.4640839695206052
20
-4.6043000256688709
30
0
10
1.5571381296802822
20
-4.6903228080076671
30
0
10
1.5962242424437936
20
-4.7528856456547057
30
0
10
1.6291856467433457
20
-4.8236293593188408
30
0
10
1.6358625707278553
20
-4.8398267027714468
30
0
10
1.6418308451328936
20
-4.8562244019324377
30
0
0
LWPOLYLINE
5
159
100
AcDbEntity
8
0
100
AcDbPolyline
90
4
70
1
43
0.0
10
2.269273763435721
20
-2.3665852021846923
10
2.3802610808513784
20
-2.3261891222643358
10
2.2092510130295842
20
-1.856342822424554
10
2.0982636956139267
20
-1.8967389023449102
0
LWPOLYLINE
5
160
100
AcDbEntity
8
0
100
AcDbPolyline
90
4
70
1
43
0.0
10
3.5773315863322623
20
-5.6151133055681886
10
3.466344268916604
20
-5.6555093854885428
10
3.6373543405794382
20
-6.1253556958814963
10
3.7483416579950966
20
-6.0849596159611412
0
LWPOLYLINE
5
161
100
AcDbEntity
8
0
100
AcDbPolyline
90
4
70
1
43
0.0
10
2.2231309316168475
20
-6.1080020351084041
10
2.1121436142011891
20
-6.1483981150287583
10
2.2831536858640238
20
-6.6182444254217119
10
2.3941410032796822
20
-6.5778483455013568
0
LWPOLYLINE
5
162
100
AcDbEntity
8
0
100
AcDbPolyline
90
4
70
1
43
0.0
10
2.8250564996514385
20
-3.8935857200600781
10
2.9105615326683631
20
-4.1285088675238004
10
3.0215488500840215
20
-4.0881127876034453
10
2.9360438170670959
20
-3.8531896401397221
0
LWPOLYLINE
5
163
100
AcDbEntity
8
0
100
AcDbPolyline
90
4
70
1
43
0.0
10
0.85505035831417109
20
-2.3492315519647704
10
0.7440630408985125
20
-2.3896276318851246
10
0.91507310872030678
20
-2.8594739317249065
10
1.0260604261359654
20
-2.8190778518045523
0
ENDSEC
0
SECTION
2
OBJECTS
0
DICTIONARY
5
C
100
AcDbDictionary
3
ACAD_GROUP
350
D
3
ACAD_MLINESTYLE
350
17
0
DICTIONARY
5
D
100
AcDbDictionary
0
DICTIONARY
5
1A
330
C
100
AcDbDictionary
0
DICTIONARY
5
17
100
AcDbDictionary
0
ENDSEC
0
EOF
