0
SECTION
2
HEADER
9
$INSUNITS
70
1
9
$ACADVER
1
AC1014
9
$HANDSEED
5
FFFF
0
ENDSEC
0
SECTION
2
TABLES
0
TABLE
2
VPORT
5
8
100
AcDbSymbolTable
0
ENDTAB
0
TABLE
2
LTYPE
5
5
100
AcDbSymbolTable
0
LTYPE
5
14
100
AcDbSymbolTableRecord
100
AcDbLinetypeTableRecord
2
BYBLOCK
70
0
0
LTYPE
5
15
100
AcDbSymbolTableRecord
100
AcDbLinetypeTableRecord
2
BYLAYER
70
0
0
ENDTAB
0
TABLE
2
LAYER
5
2
100
AcDbSymbolTable
70
2
0
LAYER
5
50
100
AcDbSymbolTableRecord
100
AcDbLayerTableRecord
2
0
70
0
6
CONTINUOUS
0
ENDTAB
0
TABLE
2
STYLE
5
3
100
AcDbSymbolTable
70
1
0
STYLE
5
11
100
AcDbSymbolTableRecord
100
AcDbTextStyleTableRecord
2
STANDARD
70
0
0
ENDTAB
0
TABLE
2
VIEW
5
6
100
AcDbSymbolTable
70
0
0
ENDTAB
0
TABLE
2
UCS
5
7
100
AcDbSymbolTable
70
0
0
ENDTAB
0
TABLE
2
APPID
5
9
100
AcDbSymbolTable
70
2
0
APPID
5
12
100
AcDbSymbolTableRecord
100
AcDbRegAppTableRecord
2
ACAD
70
0
0
ENDTAB
0
TABLE
2
DIMSTYLE
5
A
100
AcDbSymbolTable
70
1
0
ENDTAB
0
TABLE
2
BLOCK_RECORD
5
1
100
AcDbSymbolTable
70
1
0
BLOCK_RECORD
5
1F
100
AcDbSymbolTableRecord
100
AcDbBlockTableRecord
2
*MODEL_SPACE
0
BLOCK_RECORD
5
1B
100
AcDbSymbolTableRecord
100
AcDbBlockTableRecord
2
*PAPER_SPACE
0
ENDTAB
0
ENDSEC
0
SECTION
2
BLOCKS
0
BLOCK
5
20
100
AcDbEntity
100
AcDbBlockBegin
2
*MODEL_SPACE
0
ENDBLK
5
21
100
AcDbEntity
100
AcDbBlockEnd
0
BLOCK
5
1C
100
AcDbEntity
100
AcDbBlockBegin
2
*PAPER_SPACE
0
ENDBLK
5
1D
100
AcDbEntity
100
AcDbBlockEnd
0
ENDSEC
0
SECTION
2
ENTITIES
0
LWPOLYLINE
5
100
100
AcDbEntity
8
0
100
AcDbPolyline
90
8
70
1
43
0.0
10
0.52275209229614839
20
0.29449999999999954
42
-1.7111361449955698
10
-0.52275209229614839
20
0.29449999999999937
10
-0.62650000000000028
20
0.29449999999999926
10
-0.62650000000000028
20
0.40649999999999936
10
-0.44131366396249372
20
0.4064999999999992
42
-0.43846365023596023
10
0.44131366396249372
20
0.40649999999999931
10
0.62649999999999972
20
0.40649999999999936
10
0.62649999999999972
20
0.29449999999999926
0
LWPOLYLINE
5
101
100
AcDbEntity
8
0
100
AcDbPolyline
90
22
70
1
43
0.0
10
0.48311023622047244
20
-0.70147630542261863
10
0.36499999999999999
20
-0.70147630542261863
10
0.36499999999999999
20
-0.90000002872286811
10
0.37499993106512014
20
-0.90000002872286833
42
-0.19999996017095831
10
-0.37499993106512036
20
-0.90000002872286811
10
-0.36499999999999999
20
-0.90000002872286811
10
-0.36499999999999999
20
-0.70147630542261863
10
-0.48311023622047244
20
-0.70147630542261863
10
-0.48311023622047183
20
-0.84689403095015869
42
-0.25315466143723847
10
-0.97320989155731175
20
-0.059055118110236171
10
-0.78750000000000231
20
-0.059055118110236178
10
-0.78750000000000231
20
0.059055118110236268
10
-0.97320989155731175
20
0.059055118110235928
42
-0.37914062663513698
10
-0.059055118110236227
20
0.97320989155731175
10
-0.059055118110236227
20
0.78750000000000231
10
0.059055118110236227
20
0.78750000000000231
10
0.059055118110235963
20
0.97320989155731175
42
-0.37914062663513698
10
0.97320989155731175
20
0.059055118110236282
10
0.78750000000000231
20
0.059055118110236268
10
0.78750000000000231
20
-0.059055118110236178
10
0.97320989155731175
20
-0.059055118110236005
42
-0.2531546614372383
10
0.48311023622047244
20
-0.84689403095015836
0
ENDSEC
0
SECTION
2
OBJECTS
0
DICTIONARY
5
C
100
AcDbDictionary
3
ACAD_GROUP
350
D
3
ACAD_MLINESTYLE
350
17
0
DICTIONARY
5
D
100
AcDbDictionary
0
DICTIONARY
5
1A
330
C
100
AcDbDictionary
0
DICTIONARY
5
17
100
AcDbDictionary
0
ENDSEC
0
EOF
