0
SECTION
2
HEADER
9
$INSUNITS
70
1
9
$ACADVER
1
AC1014
9
$HANDSEED
5
FFFF
0
ENDSEC
0
SECTION
2
TABLES
0
TABLE
2
VPORT
5
8
100
AcDbSymbolTable
0
ENDTAB
0
TABLE
2
LTYPE
5
5
100
AcDbSymbolTable
0
LTYPE
5
14
100
AcDbSymbolTableRecord
100
AcDbLinetypeTableRecord
2
BYBLOCK
70
0
0
LTYPE
5
15
100
AcDbSymbolTableRecord
100
AcDbLinetypeTableRecord
2
BYLAYER
70
0
0
ENDTAB
0
TABLE
2
LAYER
5
2
100
AcDbSymbolTable
70
2
0
LAYER
5
50
100
AcDbSymbolTableRecord
100
AcDbLayerTableRecord
2
0
70
0
6
CONTINUOUS
0
ENDTAB
0
TABLE
2
STYLE
5
3
100
AcDbSymbolTable
70
1
0
STYLE
5
11
100
AcDbSymbolTableRecord
100
AcDbTextStyleTableRecord
2
STANDARD
70
0
0
ENDTAB
0
TABLE
2
VIEW
5
6
100
AcDbSymbolTable
70
0
0
ENDTAB
0
TABLE
2
UCS
5
7
100
AcDbSymbolTable
70
0
0
ENDTAB
0
TABLE
2
APPID
5
9
100
AcDbSymbolTable
70
2
0
APPID
5
12
100
AcDbSymbolTableRecord
100
AcDbRegAppTableRecord
2
ACAD
70
0
0
ENDTAB
0
TABLE
2
DIMSTYLE
5
A
100
AcDbSymbolTable
70
1
0
ENDTAB
0
TABLE
2
BLOCK_RECORD
5
1
100
AcDbSymbolTable
70
1
0
BLOCK_RECORD
5
1F
100
AcDbSymbolTableRecord
100
AcDbBlockTableRecord
2
*MODEL_SPACE
0
BLOCK_RECORD
5
1B
100
AcDbSymbolTableRecord
100
AcDbBlockTableRecord
2
*PAPER_SPACE
0
ENDTAB
0
ENDSEC
0
SECTION
2
BLOCKS
0
BLOCK
5
20
100
AcDbEntity
100
AcDbBlockBegin
2
*MODEL_SPACE
0
ENDBLK
5
21
100
AcDbEntity
100
AcDbBlockEnd
0
BLOCK
5
1C
100
AcDbEntity
100
AcDbBlockBegin
2
*PAPER_SPACE
0
ENDBLK
5
1D
100
AcDbEntity
100
AcDbBlockEnd
0
ENDSEC
0
SECTION
2
ENTITIES
0
LWPOLYLINE
5
100
100
AcDbEntity
8
0
100
AcDbPolyline
90
4
70
1
43
0.0
10
-0.95625045141199494
20
0.97994610583469521
10
-0.85396398639808491
20
0.92089098772445899
10
-0.79490886828784868
20
1.023177452738369
10
-0.89719533330175871
20
1.0822325708486054
0
LWPOLYLINE
5
101
100
AcDbEntity
8
0
100
AcDbPolyline
90
4
70
1
43
0.0
10
-1.3971953333017588
20
0.21620716706416662
10
-1.2949088682878489
20
0.15715204895393042
10
-1.2358537501776132
20
0.25943851396783918
10
-1.3381402151915234
20
0.31849363207807535
0
LWPOLYLINE
5
102
100
AcDbEntity
8
0
100
AcDbPolyline
90
20
70
1
43
0.0
10
0.48311023622047244
20
-1.4200720050965723
10
0.48311023622047244
20
-1.3000000319553642
10
0.36499999999999999
20
-1.3000000319553642
10
0.36499999999999944
20
-1.4549140868106265
42
-0.12352304983389913
10
-0.36499999999999999
20
-1.4549140868106265
10
-0.36499999999999999
20
-1.3000000319553642
10
-0.48311023622047244
20
-1.3000000319553642
10
-0.48311023622047189
20
-1.4200720050965709
42
-0.31029446996495835
10
-1.4988370468549894
20
-0.059055118110236136
10
-1.3125
20
-0.05905511811023615
10
-1.3125
20
0.059055118110236303
10
-1.4988370468549896
20
0.059055118110235887
42
-0.39132883066926083
10
-0.059055118110236227
20
1.4988370468549894
10
-0.059055118110236227
20
1.3125
10
0.059055118110236227
20
1.3125
10
0.059055118110236192
20
1.498837046854991
42
-0.39132883066926044
10
1.4988370468549894
20
0.05905511811023631
10
1.3125
20
0.059055118110236303
10
1.3125
20
-0.05905511811023615
10
1.4988370468549894
20
-0.059055118110235658
42
-0.31029446996495802
0
LWPOLYLINE
5
103
100
AcDbEntity
8
0
100
AcDbPolyline
90
18
70
1
43
0.0
10
0.97456708337599696
20
-0.56199999999999906
42
-0.57769240271250599
10
-0.9745670833759984
20
-0.56199999999999994
10
-1.0740000000000005
20
-0.56199999999999994
10
-1.0740000000000005
20
-0.49999999999999994
10
-1.0077822185373182
20
-0.49999999999999972
42
-0.44182588575856518
10
-0.40388736053508784
20
1.0499999999999996
10
-0.51000000000000023
20
1.0500000000000003
10
-0.51000000000000023
20
1.1110000000000002
10
-0.17692936443677101
20
1.1110000000000007
42
-0.079127622735586142
10
0.17692936443677021
20
1.1110000000000002
10
0.40999999999999859
20
1.1110000000000002
10
0.4099999999999987
20
1.1500000000000001
10
0.50999999999999979
20
1.1499999999999999
10
0.51000000000000056
20
1.0027586948014973
42
-0.40152193763500088
10
1.0239999999999991
20
-0.46588517898727116
10
1.0239999999999991
20
-0.49999999999999994
10
1.0739999999999987
20
-0.49999999999999994
10
1.0739999999999987
20
-0.56199999999999994
0
ENDSEC
0
SECTION
2
OBJECTS
0
DICTIONARY
5
C
100
AcDbDictionary
3
ACAD_GROUP
350
D
3
ACAD_MLINESTYLE
350
17
0
DICTIONARY
5
D
100
AcDbDictionary
0
DICTIONARY
5
1A
330
C
100
AcDbDictionary
0
DICTIONARY
5
17
100
AcDbDictionary
0
ENDSEC
0
EOF
