0
SECTION
2
HEADER
9
$INSUNITS
70
1
9
$ACADVER
1
AC1014
9
$HANDSEED
5
FFFF
0
ENDSEC
0
SECTION
2
TABLES
0
TABLE
2
VPORT
5
8
100
AcDbSymbolTable
0
ENDTAB
0
TABLE
2
LTYPE
5
5
100
AcDbSymbolTable
0
LTYPE
5
14
100
AcDbSymbolTableRecord
100
AcDbLinetypeTableRecord
2
BYBLOCK
70
0
0
LTYPE
5
15
100
AcDbSymbolTableRecord
100
AcDbLinetypeTableRecord
2
BYLAYER
70
0
0
ENDTAB
0
TABLE
2
LAYER
5
2
100
AcDbSymbolTable
70
2
0
LAYER
5
50
100
AcDbSymbolTableRecord
100
AcDbLayerTableRecord
2
0
70
0
6
CONTINUOUS
0
ENDTAB
0
TABLE
2
STYLE
5
3
100
AcDbSymbolTable
70
1
0
STYLE
5
11
100
AcDbSymbolTableRecord
100
AcDbTextStyleTableRecord
2
STANDARD
70
0
0
ENDTAB
0
TABLE
2
VIEW
5
6
100
AcDbSymbolTable
70
0
0
ENDTAB
0
TABLE
2
UCS
5
7
100
AcDbSymbolTable
70
0
0
ENDTAB
0
TABLE
2
APPID
5
9
100
AcDbSymbolTable
70
2
0
APPID
5
12
100
AcDbSymbolTableRecord
100
AcDbRegAppTableRecord
2
ACAD
70
0
0
ENDTAB
0
TABLE
2
DIMSTYLE
5
A
100
AcDbSymbolTable
70
1
0
ENDTAB
0
TABLE
2
BLOCK_RECORD
5
1
100
AcDbSymbolTable
70
1
0
BLOCK_RECORD
5
1F
100
AcDbSymbolTableRecord
100
AcDbBlockTableRecord
2
*MODEL_SPACE
0
BLOCK_RECORD
5
1B
100
AcDbSymbolTableRecord
100
AcDbBlockTableRecord
2
*PAPER_SPACE
0
ENDTAB
0
ENDSEC
0
SECTION
2
BLOCKS
0
BLOCK
5
20
100
AcDbEntity
100
AcDbBlockBegin
2
*MODEL_SPACE
0
ENDBLK
5
21
100
AcDbEntity
100
AcDbBlockEnd
0
BLOCK
5
1C
100
AcDbEntity
100
AcDbBlockBegin
2
*PAPER_SPACE
0
ENDBLK
5
1D
100
AcDbEntity
100
AcDbBlockEnd
0
ENDSEC
0
SECTION
2
ENTITIES
0
LWPOLYLINE
5
100
100
AcDbEntity
8
0
100
AcDbPolyline
90
47
70
1
43
0.0
10
-0.84565700178920944
20
1.1112444534506751
42
-0.43531076587667594
10
-0.82079907172310029
20
1.2555034384096766
42
-0.13573303671841414
10
-0.059055118110236227
20
1.4988370468549894
10
-0.059055118110236227
20
1.3125
10
0.059055118110236227
20
1.3125
10
0.059055118110239828
20
1.4988370468550909
42
-0.39132883066926627
10
1.4988370468549894
20
0.05905511811023631
10
1.3125
20
0.059055118110236303
10
1.3125
20
-0.05905511811023615
10
1.4988370468550265
20
-0.059055118110237052
42
-0.31029446996494364
10
0.48311023622047244
20
-1.4200720050965723
10
0.48311023622047244
20
-1.3000000319553644
10
0.36499999999999999
20
-1.3000000319553644
10
0.36499999999999477
20
-1.4549140868106092
42
-0.12352304983389349
10
-0.36499999999999999
20
-1.4549140868106265
10
-0.36499999999999999
20
-1.3000000319553644
10
-0.48311023622047244
20
-1.3000000319553644
10
-0.48311023622044436
20
-1.4200720050964895
42
-0.31029446996495585
10
-1.4988370468549894
20
-0.059055118110236136
10
-1.3125
20
-0.05905511811023615
10
-1.3125
20
0.059055118110236303
10
-1.4988370468549814
20
0.059055118110236463
42
-0.031812128154771427
10
-1.4792349484279825
20
0.24872468182563739
42
-0.43531076587668122
10
-1.3570360180077774
20
0.32932240408085617
10
-1.1864741194483113
20
0.28793083176234119
42
-0.3904748683385974
10
-1.1112771918122304
20
0.17517991596619556
42
0.15546097640508791
10
-1.0077822185373186
20
-0.49999999999999994
10
-1.0740000000000003
20
-0.49999999999999994
10
-1.0740000000000003
20
-0.56199999999999994
10
-0.9745670833759984
20
-0.56199999999999994
42
0.57769240271247124
10
0.97456708337599818
20
-0.56199999999999994
10
1.0739999999999987
20
-0.56199999999999994
10
1.0739999999999987
20
-0.49999999999999994
10
1.0239999999999991
20
-0.49999999999999994
10
1.0239999999999991
20
-0.46588517898727116
42
0.40152193763499672
10
0.51000000000000012
20
1.0027586948014959
10
0.51000000000000001
20
1.1499999999999999
10
0.40999999999999975
20
1.1500000000000001
10
0.40999999999999964
20
1.1110000000000002
10
0.17692936443677024
20
1.1110000000000004
42
0.07912762273559093
10
-0.17692936443677068
20
1.1110000000000002
10
-0.41000000000000025
20
1.1110000000000002
10
-0.41000000000000025
20
1.1499999999999999
10
-0.51000000000000012
20
1.1500000000000001
10
-0.51000000000000056
20
1.0027586948014957
42
0.024574677760405984
10
-0.60593048437807695
20
0.94787828759886095
42
-0.39047486833859679
10
-0.73936884005933534
20
0.97157537965374219
0
ENDSEC
0
SECTION
2
OBJECTS
0
DICTIONARY
5
C
100
AcDbDictionary
3
ACAD_GROUP
350
D
3
ACAD_MLINESTYLE
350
17
0
DICTIONARY
5
D
100
AcDbDictionary
0
DICTIONARY
5
1A
330
C
100
AcDbDictionary
0
DICTIONARY
5
17
100
AcDbDictionary
0
ENDSEC
0
EOF
