0
SECTION
2
HEADER
9
$INSUNITS
70
1
9
$ACADVER
1
AC1014
9
$HANDSEED
5
FFFF
0
ENDSEC
0
SECTION
2
TABLES
0
TABLE
2
VPORT
5
8
100
AcDbSymbolTable
0
ENDTAB
0
TABLE
2
LTYPE
5
5
100
AcDbSymbolTable
0
LTYPE
5
14
100
AcDbSymbolTableRecord
100
AcDbLinetypeTableRecord
2
BYBLOCK
70
0
0
LTYPE
5
15
100
AcDbSymbolTableRecord
100
AcDbLinetypeTableRecord
2
BYLAYER
70
0
0
ENDTAB
0
TABLE
2
LAYER
5
2
100
AcDbSymbolTable
70
2
0
LAYER
5
50
100
AcDbSymbolTableRecord
100
AcDbLayerTableRecord
2
0
70
0
6
CONTINUOUS
0
ENDTAB
0
TABLE
2
STYLE
5
3
100
AcDbSymbolTable
70
1
0
STYLE
5
11
100
AcDbSymbolTableRecord
100
AcDbTextStyleTableRecord
2
STANDARD
70
0
0
ENDTAB
0
TABLE
2
VIEW
5
6
100
AcDbSymbolTable
70
0
0
ENDTAB
0
TABLE
2
UCS
5
7
100
AcDbSymbolTable
70
0
0
ENDTAB
0
TABLE
2
APPID
5
9
100
AcDbSymbolTable
70
2
0
APPID
5
12
100
AcDbSymbolTableRecord
100
AcDbRegAppTableRecord
2
ACAD
70
0
0
ENDTAB
0
TABLE
2
DIMSTYLE
5
A
100
AcDbSymbolTable
70
1
0
ENDTAB
0
TABLE
2
BLOCK_RECORD
5
1
100
AcDbSymbolTable
70
1
0
BLOCK_RECORD
5
1F
100
AcDbSymbolTableRecord
100
AcDbBlockTableRecord
2
*MODEL_SPACE
0
BLOCK_RECORD
5
1B
100
AcDbSymbolTableRecord
100
AcDbBlockTableRecord
2
*PAPER_SPACE
0
ENDTAB
0
ENDSEC
0
SECTION
2
BLOCKS
0
BLOCK
5
20
100
AcDbEntity
100
AcDbBlockBegin
2
*MODEL_SPACE
0
ENDBLK
5
21
100
AcDbEntity
100
AcDbBlockEnd
0
BLOCK
5
1C
100
AcDbEntity
100
AcDbBlockBegin
2
*PAPER_SPACE
0
ENDBLK
5
1D
100
AcDbEntity
100
AcDbBlockEnd
0
ENDSEC
0
SECTION
2
ENTITIES
0
SPLINE
5
100
100
AcDbEntity
8
0
100
AcDbSpline
70
1064
71
3
72
38
73
34
74
0
42
0.000000001
43
0.0000000001
44
0.0000000001
40
0
40
0
40
0
40
0
40
0.094027604260127601
40
0.094027604260127601
40
0.18807618502867066
40
0.18807618502867066
40
0.2821515553843349
40
0.2821515553843349
40
0.37625153346471318
40
0.37625153346471318
40
0.47035380043009795
40
0.47035380043009795
40
0.5644344790853203
40
0.5644344790853203
40
0.65848575103675777
40
0.65848575103675777
40
0.75251121835047008
40
0.75251121835047008
40
0.84653668566418239
40
0.84653668566418239
40
0.94058795761561986
40
0.94058795761561986
40
1.0346686362708422
40
1.0346686362708422
40
1.128770903236227
40
1.128770903236227
40
1.222870881316606
40
1.222870881316606
40
1.3169462516722694
40
1.3169462516722694
40
1.4109948324408124
40
1.4109948324408124
40
1.5050224367009399
40
1.5050224367009399
40
1.5050224367009399
40
1.5050224367009399
10
0.55000001755286387
20
-1.9991279937947075
30
0
10
0.53766043694129861
20
-1.9991279937947075
30
0
10
0.52313763750022357
20
-1.9962383128576264
30
0
10
0.50033536643828735
20
-1.9867909155768864
30
0
10
0.48802188794914941
20
-1.9785606028414764
30
0
10
0.47056705397219967
20
-1.9611010745241588
30
0
10
0.46233821739954323
20
-1.9487815357642271
30
0
10
0.45289002802474487
20
-1.9259655070232045
30
0
10
0.45000001755286395
20
-1.9114311523982159
30
0
10
0.45000001755286395
20
-1.8867326950431291
30
0
10
0.45289013743361195
20
-1.8721979946620915
30
0
10
0.46233845071369023
20
-1.8493809381231057
30
0
10
0.47056749774567319
20
-1.8370605346576767
30
0
10
0.48802261873788
20
-1.8195998088472898
30
0
10
0.50033616920812951
20
-1.8113688411579916
30
0
10
0.52313829647773846
20
-1.8019209068123954
30
0
10
0.53766071738046073
20
-1.7990310479029503
30
0
10
0.56233931772526702
20
-1.7990310479029503
30
0
10
0.57686173862798928
20
-1.8019209068123954
30
0
10
0.59966386589759813
20
-1.8113688411579916
30
0
10
0.61197741636784775
20
-1.8195998088472898
30
0
10
0.62943253736005444
20
-1.8370605346576767
30
0
10
0.63766158439203746
20
-1.8493809381231057
30
0
10
0.64710989767211569
20
-1.8721979946620915
30
0
10
0.65000001755286374
20
-1.8867326950431291
30
0
10
0.65000001755286374
20
-1.9114311523982164
30
0
10
0.64711000708098299
20
-1.9259655070232045
30
0
10
0.63766181770618446
20
-1.9487815357642275
30
0
10
0.62943298113352797
20
-1.9611010745241588
30
0
10
0.61197814715657828
20
-1.9785606028414764
30
0
10
0.59966466866744039
20
-1.9867909155768864
30
0
10
0.57686239760550417
20
-1.9962383128576264
30
0
10
0.56233959816442913
20
-1.9991279937947075
30
0
10
0.55000001755286387
20
-1.9991279937947075
30
0
0
SPLINE
5
101
100
AcDbEntity
8
0
100
AcDbSpline
70
1064
71
3
72
38
73
34
74
0
42
0.000000001
43
0.0000000001
44
0.0000000001
40
0
40
0
40
0
40
0
40
0.094026878538088859
40
0.094026878538088859
40
0.18807584132540683
40
0.18807584132540683
40
0.28215304919392276
40
0.28215304919392276
40
0.37625627235176284
40
0.37625627235176284
40
0.47036197829766924
40
0.47036197829766924
40
0.56444494487086849
40
0.56444494487086849
40
0.65849682761640471
40
0.65849682761640471
40
0.75252138770652155
40
0.75252138770652155
40
0.84654594779663839
40
0.84654594779663839
40
0.94059783054217383
40
0.94059783054217383
40
1.0346807971153735
40
1.0346807971153735
40
1.12878650306128
40
1.12878650306128
40
1.2228897262191201
40
1.2228897262191201
40
1.3169669340876355
40
1.3169669340876355
40
1.4110158968749542
40
1.4110158968749542
40
1.5050427754130431
40
1.5050427754130431
40
1.5050427754130431
40
1.5050427754130431
10
1.3743974918516484
20
-1.9483568444782298
30
0
10
1.3620580064791958
20
-1.9483568444782298
30
0
10
1.3475353283008873
20
-1.9454671397425649
30
0
10
1.3247331432801546
20
-1.9360196526338942
30
0
10
1.3124196809225019
20
-1.927789207503537
30
0
10
1.2949647658140213
20
-1.9103293484241537
30
0
10
1.2867358734750451
20
-1.8980094989258609
30
0
10
1.2772875451313923
20
-1.8751928057980605
30
0
10
1.2743974918516481
20
-1.8606579386447151
30
0
10
1.2743974918516481
20
-1.8359586041166642
30
0
10
1.2772876638106365
20
-1.8214233619167104
30
0
10
1.2867361265713733
20
-1.7986055538279162
30
0
10
1.2949652472453699
20
-1.7862847662705494
30
0
10
1.3124204737477658
20
-1.7688236080456188
30
0
10
1.3247340142249713
20
-1.7605924523226029
30
0
10
1.3475360432543846
20
-1.7511443825076414
30
0
10
1.3620583107374598
20
-1.7482544846601362
30
0
10
1.3867366729658368
20
-1.7482544846601362
30
0
10
1.401258940448912
20
-1.7511443825076414
30
0
10
1.4240609694783255
20
-1.7605924523226029
30
0
10
1.4363745099555305
20
-1.7688236080456188
30
0
10
1.4538297364579265
20
-1.7862847662705494
30
0
10
1.4620588571319231
20
-1.7986055538279162
30
0
10
1.47150731989266
20
-1.8214233619167104
30
0
10
1.4743974918516485
20
-1.8359586041166642
30
0
10
1.4743974918516485
20
-1.8606579386447151
30
0
10
1.4715074385719042
20
-1.8751928057980605
30
0
10
1.4620591102282514
20
-1.8980094989258607
30
0
10
1.4538302178892755
20
-1.9103293484241541
30
0
10
1.4363753027807951
20
-1.9277892075035374
30
0
10
1.4240618404231422
20
-1.9360196526338942
30
0
10
1.4012596554024093
20
-1.9454671397425649
30
0
10
1.3867369772241009
20
-1.9483568444782298
30
0
10
1.3743974918516484
20
-1.9483568444782298
30
0
0
SPLINE
5
102
100
AcDbEntity
8
0
100
AcDbSpline
70
1064
71
3
72
38
73
34
74
0
42
0.000000001
43
0.0000000001
44
0.0000000001
40
0
40
0
40
0
40
0
40
0.094024837221263147
40
0.094024837221263147
40
0.18807486720346139
40
0.18807486720346139
40
0.28215724306955114
40
0.28215724306955114
40
0.37626962896577487
40
0.37626962896577487
40
0.47038507362872073
40
0.47038507362872073
40
0.56447454663677055
40
0.56447454663677055
40
0.65852817673475772
40
0.65852817673475772
40
0.75255015601559472
40
0.75255015601559472
40
0.84657213529643183
40
0.84657213529643183
40
0.94062576539441944
40
0.94062576539441944
40
1.03471523840247
40
1.03471523840247
40
1.1288306830654151
40
1.1288306830654151
40
1.2229430689616387
40
1.2229430689616387
40
1.3170254448277277
40
1.3170254448277277
40
1.4110754748099272
40
1.4110754748099272
40
1.5051003120311903
40
1.5051003120311903
40
1.5051003120311903
40
1.5051003120311903
10
2.0815849227608654
20
-1.8242233679928472
30
0
10
2.0692457052777598
20
-1.8242233679928472
30
0
10
2.0547233680912371
20
-1.8213335968084334
30
0
10
2.031921425597492
20
-1.8118858583288597
30
0
10
2.0196080091522277
20
-1.8036550420848902
30
0
10
2.0021528660792498
20
-1.786194253872414
30
0
10
1.9939238171064677
20
-1.7738735302912283
30
0
10
1.9844750964721203
20
-1.7510549640695168
30
0
10
1.9815849227608664
20
-1.7365186496647227
30
0
10
1.9815849227608664
20
-1.7118168346307105
30
0
10
1.9844752426898666
20
-1.6972800581734131
30
0
10
1.9939241289774052
20
-1.6744601180079537
30
0
10
2.0021534594188961
20
-1.6621382383999932
30
0
10
2.0196089863493123
20
-1.6446758489339655
30
0
10
2.031922499178402
20
-1.6364441567098322
30
0
10
2.0547242494311804
20
-1.6269956998407356
30
0
10
2.0692460803355597
20
-1.6241056905266249
30
0
10
2.0939237651861728
20
-1.6241056905266249
30
0
10
2.1084455960905522
20
-1.626995699840736
30
0
10
2.1312473463433301
20
-1.6364441567098327
30
0
10
2.1435608591724198
20
-1.6446758489339661
30
0
10
2.161016386102836
20
-1.6621382383999943
30
0
10
2.1692457165443275
20
-1.6744601180079544
30
0
10
2.1786946028318654
20
-1.6972800581734142
30
0
10
2.1815849227608659
20
-1.7118168346307117
30
0
10
2.1815849227608659
20
-1.7365186496647234
30
0
10
2.1786947490496105
20
-1.7510549640695174
30
0
10
2.1692460284152633
20
-1.7738735302912285
30
0
10
2.1610169794424818
20
-1.7861942538724147
30
0
10
2.1435618363695035
20
-1.8036550420848909
30
0
10
2.1312484199242387
20
-1.81188585832886
30
0
10
2.1084464774304941
20
-1.8213335968084334
30
0
10
2.093924140243971
20
-1.8242233679928472
30
0
10
2.0815849227608654
20
-1.8242233679928472
30
0
0
SPLINE
5
103
100
AcDbEntity
8
0
100
AcDbSpline
70
1064
71
3
72
38
73
34
74
0
42
0.000000001
43
0.0000000001
44
0.0000000001
40
0
40
0
40
0
40
0
40
0.09403777055844359
40
0.09403777055844359
40
0.18810274945040373
40
0.18810274945040373
40
0.28217421398783205
40
0.28217421398783205
40
0.37627828674787356
40
0.37627828674787356
40
0.47038397913975344
40
0.47038397913975344
40
0.56446162773411523
40
0.56446162773411523
40
0.65853251059335205
40
0.65853251059335205
40
0.75256888429439373
40
0.75256888429439373
40
0.84658917257065114
40
0.84658917257065114
40
0.9406439550544774
40
0.9406439550544774
40
1.0347376895868328
40
1.0347376895868328
40
1.1288594815524164
40
1.1288594815524164
40
1.2229778190148268
40
1.2229778190148268
40
1.3170635363660292
40
1.3170635363660292
40
1.4111142509281274
40
1.4111142509281274
40
1.505137768104454
40
1.505137768104454
40
1.505137768104454
40
1.505137768104454
10
-0.26135521829098468
20
-1.7557204024282751
30
0
10
-0.27369613306243396
20
-1.7557204024282751
30
0
10
-0.28822036617027724
20
-1.7528297229096286
30
0
10
-0.31102505255750035
20
-1.7433790477306945
30
0
10
-0.32333957936459856
20
-1.735145656528541
30
0
10
-0.34079281512173298
20
-1.7176822126919793
30
0
10
-0.34901963123787488
20
-1.7053620642171563
30
0
10
-0.35846583222101774
20
-1.6825451853533475
30
0
10
-0.36135521829098471
20
-1.6680100491371017
30
0
10
-0.36135521829098466
20
-1.6433106048914428
30
0
10
-0.35846577841288302
20
-1.628775219320733
30
0
10
-0.34901974696219784
20
-1.6059571618774324
30
0
10
-0.34079291287080687
20
-1.5936358543917528
30
0
10
-0.32333950756494312
20
-1.5761703372676614
30
0
10
-0.31102472509877527
20
-1.5679356556960287
30
0
10
-0.28821988282566691
20
-1.5584838117565665
30
0
10
-0.2736959497478143
20
-1.5555927517241461
30
0
10
-0.24901659778228952
20
-1.5555927517241461
30
0
10
-0.2344950530417432
20
-1.5584828346072563
30
0
10
-0.21169348492281306
20
-1.5679315463636143
30
0
10
-0.19937998961367936
20
-1.5761635913300722
30
0
10
-0.18192426562338901
20
-1.5936267883911248
30
0
10
-0.17369479752777153
20
-1.6059493830766876
30
0
10
-0.16424563503441814
20
-1.6287707157373437
30
0
10
-0.16135521829098473
20
-1.6433084920864949
30
0
10
-0.16135521829098465
20
-1.6680119211452866
30
0
10
-0.16424546989474004
20
-1.6825491756630935
30
0
10
-0.17369444526415889
20
-1.7053689563835239
30
0
10
-0.18192359535567668
20
-1.71769024522166
30
0
10
-0.19937888566134665
20
-1.7351516333321257
30
0
10
-0.21169227201268473
20
-1.7433826885901891
30
0
10
-0.23449405728949368
20
-1.7528305886440434
30
0
10
-0.24901617404212292
20
-1.7557204024282751
30
0
10
-0.26135521829098468
20
-1.7557204024282751
30
0
0
LINE
5
104
100
AcDbEntity
8
0
100
AcDbLine
10
-2.3141102362204693
20
-1.3125
30
0
11
-2.3141102362204693
21
-1.1249999999999998
31
0
0
LINE
5
105
100
AcDbEntity
8
0
100
AcDbLine
10
-2.3141102362204693
20
-1.1249999999999998
30
0
11
-2.8180000000000001
21
-0.60000000000000031
31
0
0
LINE
5
106
100
AcDbEntity
8
0
100
AcDbLine
10
-2.8180000000000001
20
-0.60000000000000031
30
0
11
-2.817999999999989
21
-0.78750000000000231
31
0
0
LINE
5
107
100
AcDbEntity
8
0
100
AcDbLine
10
-2.817999999999989
20
-0.78750000000000231
30
0
11
-2.9361102362204625
21
-0.78750000000000075
31
0
0
LINE
5
108
100
AcDbEntity
8
0
100
AcDbLine
10
-2.9361102362204625
20
-0.78750000000000075
30
0
11
-2.9361102362204745
21
-0.60000000000000064
31
0
0
LINE
5
109
100
AcDbEntity
8
0
100
AcDbLine
10
-2.9361102362204745
20
-0.60000000000000064
30
0
11
-3.2510367454068243
21
-0.60000000000000031
31
0
0
LINE
5
110
100
AcDbEntity
8
0
100
AcDbLine
10
-3.2510367454068243
20
-0.60000000000000031
30
0
11
-3.2510367454068132
21
-0.78750000000000231
31
0
0
LINE
5
111
100
AcDbEntity
8
0
100
AcDbLine
10
-3.2510367454068132
20
-0.78750000000000231
30
0
11
-3.3691469816272868
21
-0.78750000000000075
31
0
0
LINE
5
112
100
AcDbEntity
8
0
100
AcDbLine
10
-3.3691469816272868
20
-0.78750000000000075
30
0
11
-3.3691469816272983
21
-0.60000000000000064
31
0
0
LINE
5
113
100
AcDbEntity
8
0
100
AcDbLine
10
-3.3691469816272983
20
-0.60000000000000064
30
0
11
-3.6840734908136485
21
-0.60000000000000031
31
0
0
LINE
5
114
100
AcDbEntity
8
0
100
AcDbLine
10
-3.6840734908136485
20
-0.60000000000000031
30
0
11
-3.6840734908136374
21
-0.78750000000000231
31
0
0
LINE
5
115
100
AcDbEntity
8
0
100
AcDbLine
10
-3.6840734908136374
20
-0.78750000000000231
30
0
11
-3.8021837270341106
21
-0.78750000000000075
31
0
0
LINE
5
116
100
AcDbEntity
8
0
100
AcDbLine
10
-3.8021837270341106
20
-0.78750000000000075
30
0
11
-3.8021837270341226
21
-0.60000000000000064
31
0
0
LINE
5
117
100
AcDbEntity
8
0
100
AcDbLine
10
-3.8021837270341226
20
-0.60000000000000064
30
0
11
-4.2352204724409477
21
-0.60000000000000075
31
0
0
LINE
5
118
100
AcDbEntity
8
0
100
AcDbLine
10
-4.2352204724409477
20
-0.60000000000000075
30
0
11
-4.8730171285611679
21
-0.72808727107398463
31
0
0
ARC
5
119
100
AcDbEntity
8
0
100
AcDbCircle
10
-4.8671102362204497
20
-0.7574999999999994
30
0
40
0.030000000000001047
100
AcDbArc
50
101.35552800535125
51
270
0
LINE
5
120
100
AcDbEntity
8
0
100
AcDbLine
10
-4.8671102362204497
20
-0.78750000000000042
30
0
11
-4.2352204724409344
21
-0.78750000000000075
31
0
0
LINE
5
121
100
AcDbEntity
8
0
100
AcDbLine
10
-4.2352204724409344
20
-0.78750000000000075
30
0
11
-4.1171102362204621
21
-0.7675000000000044
31
0
0
LINE
5
122
100
AcDbEntity
8
0
100
AcDbLine
10
-4.1171102362204621
20
-0.7675000000000044
30
0
11
-4.1171102362204506
21
-0.97500000000000431
31
0
0
LINE
5
123
100
AcDbEntity
8
0
100
AcDbLine
10
-4.1171102362204506
20
-0.97500000000000431
30
0
11
-2.9998322232431547
21
-0.97500000000000431
31
-1.2291347259729441e-49
0
SPLINE
5
124
100
AcDbEntity
8
0
100
AcDbSpline
70
1064
71
3
72
14
73
10
74
0
42
0.000000001
43
0.0000000001
44
0.0000000001
40
0
40
0
40
0
40
0
40
0.19844739248055945
40
0.19844739248055945
40
0.39689478496111852
40
0.39689478496111852
40
0.55010907926760655
40
0.55010907926760655
40
0.70332337357409369
40
0.70332337357409369
40
0.70332337357409369
40
0.70332337357409369
10
-2.8034271535044515
20
-1.1372501843589284
30
0
10
-2.8083427391216387
20
-1.1116753326793956
30
0
10
-2.8182066662942749
20
-1.0873051136986975
30
0
10
-2.8467207819847435
20
-1.0437173942360947
30
0
10
-2.8650983600151818
20
-1.0249166161093952
30
0
10
-2.9031333960385064
20
-0.99877961880732735
30
0
10
-2.9213276634791381
20
-0.98995589707666132
30
0
10
-2.9597329736036717
20
-0.97803214447835529
30
0
10
-2.9797253604732745
20
-0.97500000000000431
30
0
10
-2.9998322232431547
20
-0.97500000000000431
30
0
0
SPLINE
5
125
100
AcDbEntity
8
0
100
AcDbSpline
70
1064
71
5
72
15
73
9
74
0
42
0.000000001
43
0.0000000001
44
0.0000000001
40
0.20419954059599751
40
0.20419954059599751
40
0.20419954059599751
40
0.20419954059599751
40
0.20419954059599751
40
0.20419954059599751
40
0.40000000000000002
40
0.60000000000000009
40
0.80000000000000004
40
1
40
1
40
1
40
1
40
1
40
1
10
-2.8034271535044519
20
-1.1372501843589287
30
0
10
-2.797779396943858
20
-1.1666343814023625
30
0
10
-2.783495027134383
20
-1.2242835450215743
30
0
10
-2.7527993888487514
20
-1.3054205524792593
30
0
10
-2.6898690702964672
20
-1.4001532826206242
30
0
10
-2.5826597362921779
20
-1.4669728837983675
30
0
10
-2.4649549710399659
20
-1.493992142786406
30
0
10
-2.3675504159672216
20
-1.4999999999999998
30
0
10
-2.3141102362204693
20
-1.5
30
0
0
LINE
5
126
100
AcDbEntity
8
0
100
AcDbLine
10
-2.3141102362204693
20
-1.5
30
0
11
-0.76473377068746984
21
-1.5
31
8.1942315064862936e-50
0
SPLINE
5
127
100
AcDbEntity
8
0
100
AcDbSpline
70
1064
71
3
72
14
73
10
74
0
42
0.000000001
43
0.0000000001
44
0.0000000001
40
0
40
0
40
0
40
0
40
0.1984473924805589
40
0.1984473924805589
40
0.39689478496111796
40
0.39689478496111796
40
0.51645054145292413
40
0.51645054145292413
40
0.63600629794473051
40
0.63600629794473051
40
0.63600629794473051
40
0.63600629794473051
10
-0.57500076328819794
20
-1.6367434912184697
30
0
10
-0.58323769847528328
20
-1.6120374409652676
30
0
10
-0.59622152506782033
20
-1.5891764506225645
30
0
10
-0.63022131973189266
20
-1.5497181429502769
30
0
10
-0.65091223123511965
20
-1.5334980685484787
30
0
10
-0.688116919312034
20
-1.5145922715472888
30
0
10
-0.7028922423641446
20
-1.5091550549285748
30
0
10
-0.73340866779115887
20
-1.5018462576350993
30
0
10
-0.74904403886439808
20
-1.5
30
0
10
-0.76473377068746984
20
-1.5
30
0
0
SPLINE
5
128
100
AcDbEntity
8
0
100
AcDbSpline
70
1064
71
5
72
16
73
10
74
0
42
0.000000001
43
0.0000000001
44
0.0000000001
40
-0.95273972319965838
40
-0.95273972319965838
40
-0.95273972319965838
40
-0.95273972319965838
40
-0.95273972319965838
40
-0.95273972319965838
40
-0.93333333333333324
40
-0.86666666666666659
40
-0.79999999999999993
40
-0.73333333333333328
40
-0.70168113841860924
40
-0.70168113841860924
40
-0.70168113841860924
40
-0.70168113841860924
40
-0.70168113841860924
40
-0.70168113841860924
10
-0.57500076328817895
20
-1.6367434912185264
30
0
10
-0.57144415103776314
20
-1.6474112746833833
30
0
10
-0.55406639313637318
20
-1.6941875134540858
30
0
10
-0.51088189852429811
20
-1.7728474431182164
30
0
10
-0.42094446735756191
20
-1.8733648976882671
30
0
10
-0.28794819810692263
20
-1.9622197068540159
30
0
10
-0.15786738845965906
20
-2.0141222443212135
30
0
10
-0.068362105822284483
20
-2.0368718193494377
30
0
10
-0.016526860564722416
20
-2.0466203653521653
30
0
10
-8.0589515813095755e-17
20
-2.04940748698283
30
0
0
SPLINE
5
129
100
AcDbEntity
8
0
100
AcDbSpline
70
1064
71
5
72
22
73
16
74
0
42
0.000000001
43
0.0000000001
44
0.0000000001
40
-0.70168113841860924
40
-0.70168113841860924
40
-0.70168113841860924
40
-0.70168113841860924
40
-0.70168113841860924
40
-0.70168113841860924
40
-0.66666666666666663
40
-0.59999999999999998
40
-0.53333333333333333
40
-0.46666666666666662
40
-0.39999999999999997
40
-0.33333333333333331
40
-0.26666666666666666
40
-0.20000000000000001
40
-0.13333333333333333
40
-0.066666666666666666
40
-0
40
-0
40
-0
40
-0
40
-0
40
-0
10
-8.0589515813095755e-17
20
-2.04940748698283
30
0
10
0.018282438041052593
20
-2.0524906725839895
30
0
10
0.070803192225483577
20
-2.0601958662404516
30
0
10
0.15492124722971815
20
-2.067772386765355
30
0
10
0.26630306573693857
20
-2.072178655259004
30
0
10
0.40515738840359972
20
-2.0746365089676999
30
0
10
0.56808120195148337
20
-2.0768593921070231
30
0
10
0.75486045668565505
20
-2.0759294133276573
30
0
10
0.97318405868636582
20
-2.0683321551956082
30
0
10
1.2217740742312948
20
-2.0517350163930161
30
0
10
1.4942200477948386
20
-2.0244038067996879
30
0
10
1.7811111308843681
20
-1.98518702271995
30
0
10
2.0143495345188858
20
-1.9437011691557893
30
0
10
2.1878406426898707
20
-1.9067110290145108
30
0
10
2.302402306526937
20
-1.8794210180682511
30
0
10
2.3594083009880951
20
-1.8651185418000324
30
0
0
LINE
5
130
100
AcDbEntity
8
0
100
AcDbLine
10
2.3594083009880955
20
-1.8651185418000324
30
0
11
2.359408300988096
21
-1.6776185418000324
31
0
0
LINE
5
131
100
AcDbEntity
8
0
100
AcDbLine
10
2.359408300988096
20
-1.6776185418000324
30
0
11
2.4784459784709134
21
-1.6817754290962432
31
0
0
LINE
5
132
100
AcDbEntity
8
0
100
AcDbLine
10
2.4784459784709134
20
-1.6817754290962432
30
0
11
2.4775163280264132
21
-1.4901185418000327
31
0
0
LINE
5
133
100
AcDbEntity
8
0
100
AcDbLine
10
2.4775163280264132
20
-1.4901185418000327
30
0
11
1.7912616705530244
21
-1.5942467430503668
31
0
0
LINE
5
134
100
AcDbEntity
8
0
100
AcDbLine
10
1.7912616705530244
20
-1.5942467430503668
30
0
11
1.7912616705530244
21
-1.7817467430503666
31
0
0
LINE
5
135
100
AcDbEntity
8
0
100
AcDbLine
10
1.7912616705530244
20
-1.7817467430503666
30
0
11
1.6731514343325524
21
-1.7817467430503666
31
0
0
LINE
5
136
100
AcDbEntity
8
0
100
AcDbLine
10
1.6731514343325524
20
-1.7817467430503666
30
0
11
1.6731514343325524
21
-1.6142467430503669
31
0
0
LINE
5
137
100
AcDbEntity
8
0
100
AcDbLine
10
1.6731514343325524
20
-1.6142467430503669
30
0
11
1.0181102362204724
21
-1.6944074869828305
31
0
0
LINE
5
138
100
AcDbEntity
8
0
100
AcDbLine
10
1.0181102362204724
20
-1.6944074869828305
30
0
11
1.0181102362204724
21
-1.8619074869828307
31
0
0
LINE
5
139
100
AcDbEntity
8
0
100
AcDbLine
10
1.0181102362204724
20
-1.8619074869828307
30
0
11
0.90000000000000047
21
-1.8619074869828307
31
0
0
LINE
5
140
100
AcDbEntity
8
0
100
AcDbLine
10
0.90000000000000047
20
-1.8619074869828307
30
0
11
0.90000000000000047
21
-1.6944074869828309
31
0
0
SPLINE
5
141
100
AcDbEntity
8
0
100
AcDbSpline
70
1064
71
5
72
16
73
10
74
0
42
0.000000001
43
0.0000000001
44
0.0000000001
40
-1
40
-1
40
-1
40
-1
40
-1
40
-1
40
-0.80000000000000004
40
-0.60000000000000009
40
-0.40000000000000002
40
-0.20000000000000001
40
-0
40
-0
40
-0
40
-0
40
-0
40
-0
10
0.90000000000000013
20
-1.6944074869828309
30
0
10
0.85064036448186664
20
-1.698936522471248
30
0
10
0.7576035489188585
20
-1.7063013378556948
30
0
10
0.63507997147881068
20
-1.7122726912439128
30
0
10
0.50074636761766989
20
-1.710901031105668
30
0
10
0.36267931047505725
20
-1.6947120837408385
30
0
10
0.26340752826583308
20
-1.668598628518877
30
0
10
0.19057907668081309
20
-1.6395020201573842
30
0
10
0.14223242135592412
20
-1.6153306878240488
30
0
10
0.11811023622047251
20
-1.6020506136774204
30
0
0
LINE
5
142
100
AcDbEntity
8
0
100
AcDbLine
10
0.11811023622047249
20
-1.6020506136774204
30
0
11
0.11811023622047236
21
-1.8094731360578888
31
0
0
LINE
5
143
100
AcDbEntity
8
0
100
AcDbLine
10
0.11811023622047236
20
-1.8094731360578888
30
0
11
0
21
-1.8094731360578888
31
0
0
LINE
5
144
100
AcDbEntity
8
0
100
AcDbLine
10
0
20
-1.8094731360578888
30
0
11
0
21
-1.5695387851329472
31
0
0
LINE
5
145
100
AcDbEntity
8
0
100
AcDbLine
10
0
20
-1.5695387851329472
30
0
11
-0.56248211472583787
21
-1.1499999999999999
31
0
0
LINE
5
146
100
AcDbEntity
8
0
100
AcDbLine
10
-0.56248211472583787
20
-1.1499999999999999
30
0
11
-0.59599999999999653
21
-1.1499999999999999
31
0
0
LINE
5
147
100
AcDbEntity
8
0
100
AcDbLine
10
-0.59599999999999653
20
-1.1499999999999999
30
0
11
-0.59599999999999653
21
-1.3125
31
0
0
LINE
5
148
100
AcDbEntity
8
0
100
AcDbLine
10
-0.59599999999999653
20
-1.3125
30
0
11
-0.71411023622046887
21
-1.3125
31
0
0
LINE
5
149
100
AcDbEntity
8
0
100
AcDbLine
10
-0.71411023622046887
20
-1.3125
30
0
11
-0.71411023622046887
21
-1.1499999999999999
31
0
0
LINE
5
150
100
AcDbEntity
8
0
100
AcDbLine
10
-0.71411023622046887
20
-1.1499999999999999
30
0
11
-1.12933333333333
21
-1.1500000000000001
31
0
0
LINE
5
151
100
AcDbEntity
8
0
100
AcDbLine
10
-1.12933333333333
20
-1.1500000000000001
30
0
11
-1.12933333333333
21
-1.3125
31
0
0
LINE
5
152
100
AcDbEntity
8
0
100
AcDbLine
10
-1.12933333333333
20
-1.3125
30
0
11
-1.2474435695538024
21
-1.3125
31
0
0
LINE
5
153
100
AcDbEntity
8
0
100
AcDbLine
10
-1.2474435695538024
20
-1.3125
30
0
11
-1.2474435695538024
21
-1.1249999999999998
31
0
0
LINE
5
154
100
AcDbEntity
8
0
100
AcDbLine
10
-1.2474435695538024
20
-1.1249999999999998
30
0
11
-1.6626666666666634
21
-1.1249999999999998
31
0
0
LINE
5
155
100
AcDbEntity
8
0
100
AcDbLine
10
-1.6626666666666634
20
-1.1249999999999998
30
0
11
-1.6626666666666634
21
-1.3125
31
0
0
LINE
5
156
100
AcDbEntity
8
0
100
AcDbLine
10
-1.6626666666666634
20
-1.3125
30
0
11
-1.7807769028871359
21
-1.3125
31
0
0
LINE
5
157
100
AcDbEntity
8
0
100
AcDbLine
10
-1.7807769028871359
20
-1.3125
30
0
11
-1.7807769028871359
21
-1.1249999999999998
31
0
0
LINE
5
158
100
AcDbEntity
8
0
100
AcDbLine
10
-1.7807769028871359
20
-1.1249999999999998
30
0
11
-2.1959999999999966
21
-1.1249999999999998
31
0
0
LINE
5
159
100
AcDbEntity
8
0
100
AcDbLine
10
-2.1959999999999966
20
-1.1249999999999998
30
0
11
-2.1959999999999966
21
-1.3125
31
0
0
LINE
5
160
100
AcDbEntity
8
0
100
AcDbLine
10
-2.1959999999999966
20
-1.3125
30
0
11
-2.3141102362204693
21
-1.3125
31
0
0
ENDSEC
0
SECTION
2
OBJECTS
0
DICTIONARY
5
C
100
AcDbDictionary
3
ACAD_GROUP
350
D
3
ACAD_MLINESTYLE
350
17
0
DICTIONARY
5
D
100
AcDbDictionary
0
DICTIONARY
5
1A
330
C
100
AcDbDictionary
0
DICTIONARY
5
17
100
AcDbDictionary
0
ENDSEC
0
EOF
