0
SECTION
2
HEADER
9
$INSUNITS
70
1
9
$ACADVER
1
AC1014
9
$HANDSEED
5
FFFF
0
ENDSEC
0
SECTION
2
TABLES
0
TABLE
2
VPORT
5
8
100
AcDbSymbolTable
0
ENDTAB
0
TABLE
2
LTYPE
5
5
100
AcDbSymbolTable
0
LTYPE
5
14
100
AcDbSymbolTableRecord
100
AcDbLinetypeTableRecord
2
BYBLOCK
70
0
0
LTYPE
5
15
100
AcDbSymbolTableRecord
100
AcDbLinetypeTableRecord
2
BYLAYER
70
0
0
ENDTAB
0
TABLE
2
LAYER
5
2
100
AcDbSymbolTable
70
2
0
LAYER
5
50
100
AcDbSymbolTableRecord
100
AcDbLayerTableRecord
2
0
70
0
6
CONTINUOUS
0
ENDTAB
0
TABLE
2
STYLE
5
3
100
AcDbSymbolTable
70
1
0
STYLE
5
11
100
AcDbSymbolTableRecord
100
AcDbTextStyleTableRecord
2
STANDARD
70
0
0
ENDTAB
0
TABLE
2
VIEW
5
6
100
AcDbSymbolTable
70
0
0
ENDTAB
0
TABLE
2
UCS
5
7
100
AcDbSymbolTable
70
0
0
ENDTAB
0
TABLE
2
APPID
5
9
100
AcDbSymbolTable
70
2
0
APPID
5
12
100
AcDbSymbolTableRecord
100
AcDbRegAppTableRecord
2
ACAD
70
0
0
ENDTAB
0
TABLE
2
DIMSTYLE
5
A
100
AcDbSymbolTable
70
1
0
ENDTAB
0
TABLE
2
BLOCK_RECORD
5
1
100
AcDbSymbolTable
70
1
0
BLOCK_RECORD
5
1F
100
AcDbSymbolTableRecord
100
AcDbBlockTableRecord
2
*MODEL_SPACE
0
BLOCK_RECORD
5
1B
100
AcDbSymbolTableRecord
100
AcDbBlockTableRecord
2
*PAPER_SPACE
0
ENDTAB
0
ENDSEC
0
SECTION
2
BLOCKS
0
BLOCK
5
20
100
AcDbEntity
100
AcDbBlockBegin
2
*MODEL_SPACE
0
ENDBLK
5
21
100
AcDbEntity
100
AcDbBlockEnd
0
BLOCK
5
1C
100
AcDbEntity
100
AcDbBlockBegin
2
*PAPER_SPACE
0
ENDBLK
5
1D
100
AcDbEntity
100
AcDbBlockEnd
0
ENDSEC
0
SECTION
2
ENTITIES
0
SPLINE
5
100
100
AcDbEntity
8
0
100
AcDbSpline
70
1064
71
3
72
38
73
34
74
0
42
0.000000001
43
0.0000000001
44
0.0000000001
40
0
40
0
40
0
40
0
40
0.094027604260127601
40
0.094027604260127601
40
0.18807618502867066
40
0.18807618502867066
40
0.28215155538433412
40
0.28215155538433412
40
0.37625153346471324
40
0.37625153346471324
40
0.470353800430098
40
0.470353800430098
40
0.56443447908532041
40
0.56443447908532041
40
0.65848575103675788
40
0.65848575103675788
40
0.75251121835047019
40
0.75251121835047019
40
0.8465366856641825
40
0.8465366856641825
40
0.94058795761561997
40
0.94058795761561997
40
1.0346686362708424
40
1.0346686362708424
40
1.1287709032362272
40
1.1287709032362272
40
1.2228708813166056
40
1.2228708813166056
40
1.3169462516722699
40
1.3169462516722699
40
1.4109948324408128
40
1.4109948324408128
40
1.5050224367009404
40
1.5050224367009404
40
1.5050224367009404
40
1.5050224367009404
10
0.55000001755286387
20
1.9991279937947075
30
0
10
0.56233959816442913
20
1.9991279937947075
30
0
10
0.57686239760550417
20
1.9962383128576264
30
0
10
0.59966466866744039
20
1.9867909155768864
30
0
10
0.61197814715657828
20
1.9785606028414764
30
0
10
0.62943298113352797
20
1.9611010745241588
30
0
10
0.63766181770618446
20
1.9487815357642275
30
0
10
0.64711000708098299
20
1.9259655070232045
30
0
10
0.65000001755286374
20
1.9114311523982164
30
0
10
0.65000001755286374
20
1.8867326950431291
30
0
10
0.64710989767211569
20
1.8721979946620915
30
0
10
0.63766158439203746
20
1.8493809381231057
30
0
10
0.62943253736005444
20
1.8370605346576767
30
0
10
0.61197741636784775
20
1.8195998088472898
30
0
10
0.59966386589759813
20
1.8113688411579916
30
0
10
0.57686173862798928
20
1.8019209068123954
30
0
10
0.56233931772526702
20
1.7990310479029503
30
0
10
0.53766071738046073
20
1.7990310479029503
30
0
10
0.52313829647773846
20
1.8019209068123954
30
0
10
0.50033616920812951
20
1.8113688411579916
30
0
10
0.48802261873788
20
1.8195998088472898
30
0
10
0.47056749774567319
20
1.8370605346576767
30
0
10
0.46233845071369023
20
1.8493809381231057
30
0
10
0.45289013743361195
20
1.8721979946620915
30
0
10
0.45000001755286395
20
1.8867326950431291
30
0
10
0.45000001755286395
20
1.9114311523982159
30
0
10
0.45289002802474487
20
1.9259655070232045
30
0
10
0.46233821739954323
20
1.9487815357642271
30
0
10
0.47056705397219967
20
1.9611010745241588
30
0
10
0.48802188794914941
20
1.9785606028414764
30
0
10
0.50033536643828735
20
1.9867909155768864
30
0
10
0.52313763750022357
20
1.9962383128576264
30
0
10
0.53766043694129861
20
1.9991279937947075
30
0
10
0.55000001755286387
20
1.9991279937947075
30
0
0
SPLINE
5
101
100
AcDbEntity
8
0
100
AcDbSpline
70
1064
71
3
72
38
73
34
74
0
42
0.000000001
43
0.0000000001
44
0.0000000001
40
0
40
0
40
0
40
0
40
0.094026878538088859
40
0.094026878538088859
40
0.18807584132540756
40
0.18807584132540756
40
0.28215304919392292
40
0.28215304919392292
40
0.37625627235176307
40
0.37625627235176307
40
0.47036197829766946
40
0.47036197829766946
40
0.56444494487086927
40
0.56444494487086927
40
0.65849682761640471
40
0.65849682761640471
40
0.75252138770652155
40
0.75252138770652155
40
0.84654594779663839
40
0.84654594779663839
40
0.94059783054217461
40
0.94059783054217461
40
1.034680797115374
40
1.034680797115374
40
1.1287865030612805
40
1.1287865030612805
40
1.2228897262191205
40
1.2228897262191205
40
1.3169669340876364
40
1.3169669340876364
40
1.4110158968749544
40
1.4110158968749544
40
1.5050427754130433
40
1.5050427754130433
40
1.5050427754130433
40
1.5050427754130433
10
1.3743974918516484
20
1.9483568444782298
30
0
10
1.3867369772241009
20
1.9483568444782298
30
0
10
1.4012596554024093
20
1.9454671397425649
30
0
10
1.4240618404231422
20
1.9360196526338942
30
0
10
1.4363753027807951
20
1.9277892075035374
30
0
10
1.4538302178892755
20
1.9103293484241541
30
0
10
1.4620591102282514
20
1.8980094989258607
30
0
10
1.4715074385719042
20
1.8751928057980605
30
0
10
1.4743974918516485
20
1.8606579386447151
30
0
10
1.4743974918516485
20
1.8359586041166642
30
0
10
1.47150731989266
20
1.8214233619167104
30
0
10
1.4620588571319231
20
1.7986055538279162
30
0
10
1.4538297364579265
20
1.7862847662705494
30
0
10
1.4363745099555305
20
1.7688236080456188
30
0
10
1.4240609694783255
20
1.7605924523226029
30
0
10
1.401258940448912
20
1.7511443825076414
30
0
10
1.3867366729658368
20
1.7482544846601362
30
0
10
1.3620583107374598
20
1.7482544846601362
30
0
10
1.3475360432543846
20
1.7511443825076414
30
0
10
1.3247340142249713
20
1.7605924523226029
30
0
10
1.3124204737477658
20
1.7688236080456188
30
0
10
1.2949652472453699
20
1.7862847662705494
30
0
10
1.2867361265713733
20
1.7986055538279162
30
0
10
1.2772876638106365
20
1.8214233619167104
30
0
10
1.2743974918516481
20
1.8359586041166642
30
0
10
1.2743974918516481
20
1.8606579386447151
30
0
10
1.2772875451313923
20
1.8751928057980605
30
0
10
1.2867358734750451
20
1.8980094989258609
30
0
10
1.2949647658140213
20
1.9103293484241537
30
0
10
1.3124196809225019
20
1.927789207503537
30
0
10
1.3247331432801546
20
1.9360196526338942
30
0
10
1.3475353283008873
20
1.9454671397425649
30
0
10
1.3620580064791958
20
1.9483568444782298
30
0
10
1.3743974918516484
20
1.9483568444782298
30
0
0
SPLINE
5
102
100
AcDbEntity
8
0
100
AcDbSpline
70
1064
71
3
72
38
73
34
74
0
42
0.000000001
43
0.0000000001
44
0.0000000001
40
0
40
0
40
0
40
0
40
0.09402483722126298
40
0.09402483722126298
40
0.18807486720346261
40
0.18807486720346261
40
0.28215724306955148
40
0.28215724306955148
40
0.37626962896577504
40
0.37626962896577504
40
0.47038507362872006
40
0.47038507362872006
40
0.56447454663677066
40
0.56447454663677066
40
0.65852817673475827
40
0.65852817673475827
40
0.75255015601559538
40
0.75255015601559538
40
0.84657213529643238
40
0.84657213529643238
40
0.94062576539441956
40
0.94062576539441956
40
1.0347152384024694
40
1.0347152384024694
40
1.1288306830654153
40
1.1288306830654153
40
1.2229430689616392
40
1.2229430689616392
40
1.317025444827729
40
1.317025444827729
40
1.4110754748099272
40
1.4110754748099272
40
1.5051003120311903
40
1.5051003120311903
40
1.5051003120311903
40
1.5051003120311903
10
2.0815849227608654
20
1.8242233679928472
30
0
10
2.093924140243971
20
1.8242233679928472
30
0
10
2.1084464774304941
20
1.8213335968084334
30
0
10
2.1312484199242387
20
1.81188585832886
30
0
10
2.1435618363695035
20
1.8036550420848909
30
0
10
2.1610169794424818
20
1.7861942538724147
30
0
10
2.1692460284152633
20
1.7738735302912285
30
0
10
2.1786947490496105
20
1.7510549640695174
30
0
10
2.1815849227608659
20
1.7365186496647234
30
0
10
2.1815849227608659
20
1.7118168346307117
30
0
10
2.1786946028318654
20
1.6972800581734142
30
0
10
2.1692457165443275
20
1.6744601180079544
30
0
10
2.161016386102836
20
1.6621382383999943
30
0
10
2.1435608591724198
20
1.6446758489339661
30
0
10
2.1312473463433301
20
1.6364441567098327
30
0
10
2.1084455960905522
20
1.626995699840736
30
0
10
2.0939237651861728
20
1.6241056905266249
30
0
10
2.0692460803355597
20
1.6241056905266249
30
0
10
2.0547242494311804
20
1.6269956998407356
30
0
10
2.031922499178402
20
1.6364441567098322
30
0
10
2.0196089863493123
20
1.6446758489339655
30
0
10
2.0021534594188961
20
1.6621382383999932
30
0
10
1.9939241289774052
20
1.6744601180079537
30
0
10
1.9844752426898666
20
1.6972800581734131
30
0
10
1.9815849227608664
20
1.7118168346307105
30
0
10
1.9815849227608664
20
1.7365186496647227
30
0
10
1.9844750964721203
20
1.7510549640695168
30
0
10
1.9939238171064677
20
1.7738735302912283
30
0
10
2.0021528660792498
20
1.786194253872414
30
0
10
2.0196080091522277
20
1.8036550420848902
30
0
10
2.031921425597492
20
1.8118858583288597
30
0
10
2.0547233680912371
20
1.8213335968084334
30
0
10
2.0692457052777598
20
1.8242233679928472
30
0
10
2.0815849227608654
20
1.8242233679928472
30
0
0
SPLINE
5
103
100
AcDbEntity
8
0
100
AcDbSpline
70
1064
71
3
72
38
73
34
74
0
42
0.000000001
43
0.0000000001
44
0.0000000001
40
0
40
0
40
0
40
0
40
0.094023517176326621
40
0.094023517176326621
40
0.1880742317384248
40
0.1880742317384248
40
0.28215994908962722
40
0.28215994908962722
40
0.37627828655203754
40
0.37627828655203754
40
0.47040007851762111
40
0.47040007851762111
40
0.56449381304997637
40
0.56449381304997637
40
0.65854859553380252
40
0.65854859553380252
40
0.75256888381005993
40
0.75256888381005993
40
0.84660525751110161
40
0.84660525751110161
40
0.94067614037033842
40
0.94067614037033842
40
1.0347537889647003
40
1.0347537889647003
40
1.1288594813565802
40
1.1288594813565802
40
1.2229635541166217
40
1.2229635541166217
40
1.31703501865405
40
1.31703501865405
40
1.4110999975460101
40
1.4110999975460101
40
1.5051377681044538
40
1.5051377681044538
40
1.5051377681044538
40
1.5051377681044538
10
-0.26135521829098468
20
1.7557204024282751
30
0
10
-0.24901617404212292
20
1.7557204024282751
30
0
10
-0.23449405728949368
20
1.7528305886440434
30
0
10
-0.21169227201268473
20
1.7433826885901891
30
0
10
-0.19937888566134665
20
1.7351516333321257
30
0
10
-0.18192359535567668
20
1.71769024522166
30
0
10
-0.17369444526415889
20
1.7053689563835239
30
0
10
-0.16424546989474004
20
1.6825491756630935
30
0
10
-0.16135521829098465
20
1.6680119211452866
30
0
10
-0.16135521829098473
20
1.6433084920864949
30
0
10
-0.16424563503441814
20
1.6287707157373437
30
0
10
-0.17369479752777153
20
1.6059493830766876
30
0
10
-0.18192426562338901
20
1.5936267883911248
30
0
10
-0.19937998961367936
20
1.5761635913300722
30
0
10
-0.21169348492281306
20
1.5679315463636143
30
0
10
-0.2344950530417432
20
1.5584828346072563
30
0
10
-0.24901659778228952
20
1.5555927517241461
30
0
10
-0.2736959497478143
20
1.5555927517241461
30
0
10
-0.28821988282566691
20
1.5584838117565665
30
0
10
-0.31102472509877527
20
1.5679356556960287
30
0
10
-0.32333950756494312
20
1.5761703372676614
30
0
10
-0.34079291287080687
20
1.5936358543917528
30
0
10
-0.34901974696219784
20
1.6059571618774324
30
0
10
-0.35846577841288302
20
1.628775219320733
30
0
10
-0.36135521829098466
20
1.6433106048914428
30
0
10
-0.36135521829098471
20
1.6680100491371017
30
0
10
-0.35846583222101774
20
1.6825451853533475
30
0
10
-0.34901963123787488
20
1.7053620642171563
30
0
10
-0.34079281512173298
20
1.7176822126919793
30
0
10
-0.32333957936459856
20
1.735145656528541
30
0
10
-0.31102505255750035
20
1.7433790477306945
30
0
10
-0.28822036617027724
20
1.7528297229096286
30
0
10
-0.27369613306243396
20
1.7557204024282751
30
0
10
-0.26135521829098468
20
1.7557204024282751
30
0
0
SPLINE
5
104
100
AcDbEntity
8
0
100
AcDbSpline
70
1064
71
3
72
12
73
8
74
0
42
0.000000001
43
0.0000000001
44
0.0000000001
40
0
40
0
40
0
40
0
40
0.19844739248055901
40
0.19844739248055901
40
0.39689478496111813
40
0.39689478496111813
40
0.49329751751716888
40
0.49329751751716888
40
0.49329751751716888
40
0.49329751751716888
10
-0.76473377068746984
20
1.5
30
0
10
-0.73869080579500801
20
1.5
30
0
10
-0.71289682584143066
20
1.5050867701529249
30
0
10
-0.66471056738499557
20
1.5248612126869037
30
0
10
-0.64277897577652143
20
1.5393598306194289
30
0
10
-0.61523907667980604
20
1.5665406755624922
30
0
10
-0.60710315155475036
20
1.5762571294130669
30
0
10
-0.59994203094198539
20
1.5866700281847006
30
0
0
LINE
5
105
100
AcDbEntity
8
0
100
AcDbLine
10
-0.76473377068746984
20
1.5
30
0
11
-2.3141102362204693
21
1.5
31
0
0
SPLINE
5
106
100
AcDbEntity
8
0
100
AcDbSpline
70
1064
71
5
72
15
73
9
74
0
42
0.000000001
43
0.0000000001
44
0.0000000001
40
-1
40
-1
40
-1
40
-1
40
-1
40
-1
40
-0.80000000000000004
40
-0.60000000000000009
40
-0.40000000000000002
40
-0.20419954059599751
40
-0.20419954059599751
40
-0.20419954059599751
40
-0.20419954059599751
40
-0.20419954059599751
40
-0.20419954059599751
10
-2.3141102362204693
20
1.5
30
0
10
-2.3675504159672216
20
1.4999999999999998
30
0
10
-2.4649549710399659
20
1.493992142786406
30
0
10
-2.5826597362921779
20
1.4669728837983675
30
0
10
-2.6898690702964672
20
1.4001532826206242
30
0
10
-2.7527993888487514
20
1.3054205524792593
30
0
10
-2.783495027134383
20
1.2242835450215743
30
0
10
-2.797779396943858
20
1.1666343814023625
30
0
10
-2.8034271535044519
20
1.1372501843589287
30
0
0
SPLINE
5
107
100
AcDbEntity
8
0
100
AcDbSpline
70
1064
71
3
72
14
73
10
74
0
42
0.000000001
43
0.0000000001
44
0.0000000001
40
0
40
0
40
0
40
0
40
0.1984473924805587
40
0.1984473924805587
40
0.39689478496111785
40
0.39689478496111785
40
0.55010907926760577
40
0.55010907926760577
40
0.70332337357409291
40
0.70332337357409291
40
0.70332337357409291
40
0.70332337357409291
10
-2.9998322232431547
20
0.97500000000000431
30
0
10
-2.9737892583506929
20
0.97500000000000431
30
0
10
-2.9479952783971153
20
0.98008677015292933
30
0
10
-2.8998090199406805
20
0.9998612126869082
30
0
10
-2.8778774283322064
20
1.0143598306194335
30
0
10
-2.8450311564539308
20
1.0467778659849871
30
0
10
-2.8329318868365574
20
1.0629796284695927
30
0
10
-2.8139734926492732
20
1.0984440192246407
30
0
10
-2.8072223053178691
20
1.117504735436204
30
0
10
-2.8034271535044519
20
1.1372501843589282
30
0
0
LINE
5
108
100
AcDbEntity
8
0
100
AcDbLine
10
-2.9998322232431547
20
0.97500000000000431
30
0
11
-4.1171102362204506
21
0.97500000000000431
31
0
0
LINE
5
109
100
AcDbEntity
8
0
100
AcDbLine
10
-4.1171102362204506
20
0.97500000000000431
30
0
11
-4.1171102362204621
21
0.7675000000000044
31
0
0
LINE
5
110
100
AcDbEntity
8
0
100
AcDbLine
10
-4.1171102362204621
20
0.7675000000000044
30
0
11
-4.2352204724409344
21
0.78750000000000075
31
0
0
LINE
5
111
100
AcDbEntity
8
0
100
AcDbLine
10
-4.2352204724409344
20
0.78750000000000075
30
0
11
-4.8671102362204497
21
0.78750000000000053
31
0
0
ARC
5
112
100
AcDbEntity
8
0
100
AcDbCircle
10
-4.8671102362204497
20
0.7574999999999994
30
0
40
0.030000000000001151
100
AcDbArc
50
90
51
258.64447199464877
0
LINE
5
113
100
AcDbEntity
8
0
100
AcDbLine
10
-4.8730171285611679
20
0.72808727107398463
30
0
11
-4.2352204724409477
21
0.60000000000000075
31
0
0
LINE
5
114
100
AcDbEntity
8
0
100
AcDbLine
10
-4.2352204724409477
20
0.60000000000000075
30
0
11
-3.8021837270341226
21
0.60000000000000064
31
0
0
LINE
5
115
100
AcDbEntity
8
0
100
AcDbLine
10
-3.8021837270341226
20
0.60000000000000064
30
0
11
-3.8021837270341106
21
0.78750000000000075
31
0
0
LINE
5
116
100
AcDbEntity
8
0
100
AcDbLine
10
-3.8021837270341106
20
0.78750000000000075
30
0
11
-3.6840734908136374
21
0.78750000000000231
31
0
0
LINE
5
117
100
AcDbEntity
8
0
100
AcDbLine
10
-3.6840734908136374
20
0.78750000000000231
30
0
11
-3.6840734908136485
21
0.60000000000000031
31
0
0
LINE
5
118
100
AcDbEntity
8
0
100
AcDbLine
10
-3.6840734908136485
20
0.60000000000000031
30
0
11
-3.3691469816272983
21
0.60000000000000064
31
0
0
LINE
5
119
100
AcDbEntity
8
0
100
AcDbLine
10
-3.3691469816272983
20
0.60000000000000064
30
0
11
-3.3691469816272868
21
0.78750000000000075
31
0
0
LINE
5
120
100
AcDbEntity
8
0
100
AcDbLine
10
-3.3691469816272868
20
0.78750000000000075
30
0
11
-3.2510367454068132
21
0.78750000000000231
31
0
0
LINE
5
121
100
AcDbEntity
8
0
100
AcDbLine
10
-3.2510367454068132
20
0.78750000000000231
30
0
11
-3.2510367454068243
21
0.60000000000000031
31
0
0
LINE
5
122
100
AcDbEntity
8
0
100
AcDbLine
10
-3.2510367454068243
20
0.60000000000000031
30
0
11
-2.9361102362204745
21
0.60000000000000064
31
0
0
LINE
5
123
100
AcDbEntity
8
0
100
AcDbLine
10
-2.9361102362204745
20
0.60000000000000064
30
0
11
-2.9361102362204625
21
0.78750000000000075
31
0
0
LINE
5
124
100
AcDbEntity
8
0
100
AcDbLine
10
-2.9361102362204625
20
0.78750000000000075
30
0
11
-2.817999999999989
21
0.78750000000000231
31
0
0
LINE
5
125
100
AcDbEntity
8
0
100
AcDbLine
10
-2.817999999999989
20
0.78750000000000231
30
0
11
-2.8180000000000001
21
0.60000000000000031
31
0
0
LINE
5
126
100
AcDbEntity
8
0
100
AcDbLine
10
-2.8180000000000001
20
0.60000000000000031
30
0
11
-2.3141102362204693
21
1.1249999999999998
31
0
0
LINE
5
127
100
AcDbEntity
8
0
100
AcDbLine
10
-2.3141102362204693
20
1.1249999999999998
30
0
11
-2.3141102362204693
21
1.3125
31
0
0
LINE
5
128
100
AcDbEntity
8
0
100
AcDbLine
10
-2.3141102362204693
20
1.3125
30
0
11
-2.1959999999999966
21
1.3125
31
0
0
LINE
5
129
100
AcDbEntity
8
0
100
AcDbLine
10
-2.1959999999999966
20
1.3125
30
0
11
-2.1959999999999966
21
1.1249999999999998
31
0
0
LINE
5
130
100
AcDbEntity
8
0
100
AcDbLine
10
-2.1959999999999966
20
1.1249999999999998
30
0
11
-1.7807769028871359
21
1.1249999999999998
31
0
0
LINE
5
131
100
AcDbEntity
8
0
100
AcDbLine
10
-1.7807769028871359
20
1.1249999999999998
30
0
11
-1.7807769028871359
21
1.3125
31
0
0
LINE
5
132
100
AcDbEntity
8
0
100
AcDbLine
10
-1.7807769028871359
20
1.3125
30
0
11
-1.6626666666666634
21
1.3125
31
0
0
LINE
5
133
100
AcDbEntity
8
0
100
AcDbLine
10
-1.6626666666666634
20
1.3125
30
0
11
-1.6626666666666634
21
1.1249999999999998
31
0
0
LINE
5
134
100
AcDbEntity
8
0
100
AcDbLine
10
-1.6626666666666634
20
1.1249999999999998
30
0
11
-1.2474435695538024
21
1.1249999999999998
31
0
0
LINE
5
135
100
AcDbEntity
8
0
100
AcDbLine
10
-1.2474435695538024
20
1.1249999999999998
30
0
11
-1.2474435695538024
21
1.3125
31
0
0
LINE
5
136
100
AcDbEntity
8
0
100
AcDbLine
10
-1.2474435695538024
20
1.3125
30
0
11
-1.12933333333333
21
1.3125
31
0
0
LINE
5
137
100
AcDbEntity
8
0
100
AcDbLine
10
-1.12933333333333
20
1.3125
30
0
11
-1.12933333333333
21
1.1500000000000001
31
0
0
LINE
5
138
100
AcDbEntity
8
0
100
AcDbLine
10
-1.12933333333333
20
1.1500000000000001
30
0
11
-0.71411023622046887
21
1.1499999999999999
31
0
0
LINE
5
139
100
AcDbEntity
8
0
100
AcDbLine
10
-0.71411023622046887
20
1.1499999999999999
30
0
11
-0.71411023622046887
21
1.3125
31
0
0
LINE
5
140
100
AcDbEntity
8
0
100
AcDbLine
10
-0.71411023622046887
20
1.3125
30
0
11
-0.59599999999999653
21
1.3125
31
0
0
LINE
5
141
100
AcDbEntity
8
0
100
AcDbLine
10
-0.59599999999999653
20
1.3125
30
0
11
-0.59599999999999653
21
1.1499999999999999
31
0
0
LINE
5
142
100
AcDbEntity
8
0
100
AcDbLine
10
-0.59599999999999653
20
1.1499999999999999
30
0
11
-0.56248211472583787
21
1.1499999999999999
31
0
0
LINE
5
143
100
AcDbEntity
8
0
100
AcDbLine
10
-0.56248211472583787
20
1.1499999999999999
30
0
11
0
21
1.5695387851329472
31
0
0
LINE
5
144
100
AcDbEntity
8
0
100
AcDbLine
10
0
20
1.5695387851329472
30
0
11
0
21
1.8094731360578888
31
0
0
LINE
5
145
100
AcDbEntity
8
0
100
AcDbLine
10
0
20
1.8094731360578888
30
0
11
0.11811023622047236
21
1.8094731360578888
31
0
0
LINE
5
146
100
AcDbEntity
8
0
100
AcDbLine
10
0.11811023622047236
20
1.8094731360578888
30
0
11
0.11811023622047236
21
1.6020506136774204
31
0
0
SPLINE
5
147
100
AcDbEntity
8
0
100
AcDbSpline
70
1064
71
5
72
16
73
10
74
0
42
0.000000001
43
0.0000000001
44
0.0000000001
40
0
40
0
40
0
40
0
40
0
40
0
40
0.20000000000000001
40
0.40000000000000002
40
0.60000000000000009
40
0.80000000000000004
40
1
40
1
40
1
40
1
40
1
40
1
10
0.11811023622047251
20
1.6020506136774204
30
0
10
0.14223242135592412
20
1.6153306878240488
30
0
10
0.19057907668081309
20
1.6395020201573842
30
0
10
0.26340752826583308
20
1.668598628518877
30
0
10
0.36267931047505725
20
1.6947120837408385
30
0
10
0.50074636761766989
20
1.710901031105668
30
0
10
0.63507997147881068
20
1.7122726912439128
30
0
10
0.7576035489188585
20
1.7063013378556948
30
0
10
0.85064036448186664
20
1.698936522471248
30
0
10
0.90000000000000013
20
1.6944074869828309
30
0
0
LINE
5
148
100
AcDbEntity
8
0
100
AcDbLine
10
0.90000000000000013
20
1.6944074869828309
30
0
11
0.90000000000000047
21
1.8619074869828307
31
0
0
LINE
5
149
100
AcDbEntity
8
0
100
AcDbLine
10
0.90000000000000047
20
1.8619074869828307
30
0
11
1.0181102362204724
21
1.8619074869828307
31
0
0
LINE
5
150
100
AcDbEntity
8
0
100
AcDbLine
10
1.0181102362204724
20
1.8619074869828307
30
0
11
1.0181102362204724
21
1.6944074869828305
31
0
0
LINE
5
151
100
AcDbEntity
8
0
100
AcDbLine
10
1.0181102362204724
20
1.6944074869828305
30
0
11
1.6731514343325524
21
1.6142467430503669
31
0
0
LINE
5
152
100
AcDbEntity
8
0
100
AcDbLine
10
1.6731514343325524
20
1.6142467430503669
30
0
11
1.6731514343325524
21
1.7817467430503666
31
0
0
LINE
5
153
100
AcDbEntity
8
0
100
AcDbLine
10
1.6731514343325524
20
1.7817467430503666
30
0
11
1.7912616705530244
21
1.7817467430503666
31
0
0
LINE
5
154
100
AcDbEntity
8
0
100
AcDbLine
10
1.7912616705530244
20
1.7817467430503666
30
0
11
1.7912616705530244
21
1.5942467430503668
31
0
0
LINE
5
155
100
AcDbEntity
8
0
100
AcDbLine
10
1.7912616705530244
20
1.5942467430503668
30
0
11
2.4775163280264132
21
1.4901185418000327
31
0
0
LINE
5
156
100
AcDbEntity
8
0
100
AcDbLine
10
2.4775163280264132
20
1.4901185418000327
30
0
11
2.4784459784709134
21
1.6817754290962432
31
0
0
LINE
5
157
100
AcDbEntity
8
0
100
AcDbLine
10
2.4784459784709134
20
1.6817754290962432
30
0
11
2.359408300988096
21
1.6776185418000324
31
0
0
LINE
5
158
100
AcDbEntity
8
0
100
AcDbLine
10
2.359408300988096
20
1.6776185418000324
30
0
11
2.3594083009880951
21
1.8651185418000324
31
0
0
LINE
5
159
100
AcDbEntity
8
0
100
AcDbLine
10
2.3594083009880951
20
1.8651185418000324
30
0
11
2.477516328026411
21
1.864396150512647
31
0
0
SPLINE
5
160
100
AcDbEntity
8
0
100
AcDbSpline
70
1064
71
5
72
16
73
10
74
0
42
0.000000001
43
0.0000000001
44
0.0000000001
40
0
40
0
40
0
40
0
40
0
40
0
40
0.20000000000000001
40
0.40000000000000002
40
0.60000000000000009
40
0.80000000000000004
40
1
40
1
40
1
40
1
40
1
40
1
10
2.477516328026411
20
1.864396150512647
30
0
10
2.5127642814540021
20
1.9824596046796488
30
0
10
2.5850954778702513
20
2.1963886389681808
30
0
10
2.6990971966385353
20
2.4507521974683342
30
0
10
2.8640598865665052
20
2.6784208011459314
30
0
10
3.1091935177036492
20
2.8621257750541407
30
0
10
3.360514204013207
20
2.9931128673216469
30
0
10
3.5969160519412449
20
3.1104441881623472
30
0
10
3.7793200430471261
20
3.2011419688133924
30
0
10
3.8767283619704105
20
3.2496142057482182
30
0
0
SPLINE
5
161
100
AcDbEntity
8
0
100
AcDbSpline
70
1064
71
5
72
21
73
15
74
0
42
0.000000001
43
0.0000000001
44
0.0000000001
40
-1
40
-1
40
-1
40
-1
40
-1
40
-1
40
-0.89999999999999991
40
-0.79999999999999993
40
-0.69999999999999996
40
-0.59999999999999998
40
-0.5
40
-0.40000000000000002
40
-0.30000000000000004
40
-0.20000000000000001
40
-0.10000000000000001
40
-0.023220084620022965
40
-0.023220084620022965
40
-0.023220084620022965
40
-0.023220084620022965
40
-0.023220084620022965
40
-0.023220084620022965
10
3.8767283619704105
20
3.2496142057482182
30
0
10
3.7270841542945976
20
3.2496142057482182
30
0
10
3.4299664260037983
20
3.2467717532942069
30
0
10
2.9908025125201392
20
3.233980856463528
30
0
10
2.4201461436065199
20
3.1996849767440705
30
0
10
1.7435410591684661
20
3.1263640005027957
30
0
10
1.1205384822691211
20
3.0196462780846494
30
0
10
0.57077908615093476
20
2.8756343866073371
30
0
10
0.11343273216689308
20
2.6902799123031822
30
0
10
-0.23595705973597081
20
2.460300050586449
30
0
10
-0.46148339306224356
20
2.1982688601013445
30
0
10
-0.56195930360134361
20
1.9608850608024289
30
0
10
-0.59547471071575842
20
1.7708894593782087
30
0
10
-0.60071017425858619
20
1.6432746648244787
30
0
10
-0.59994203094198495
20
1.586670028184701
30
0
0
ENDSEC
0
SECTION
2
OBJECTS
0
DICTIONARY
5
C
100
AcDbDictionary
3
ACAD_GROUP
350
D
3
ACAD_MLINESTYLE
350
17
0
DICTIONARY
5
D
100
AcDbDictionary
0
DICTIONARY
5
1A
330
C
100
AcDbDictionary
0
DICTIONARY
5
17
100
AcDbDictionary
0
ENDSEC
0
EOF
